<?xml version="1.0" encoding="UTF-8" standalone="no"?>
<!-- Created with Inkscape (http://www.inkscape.org/) -->

<svg
   xmlns:dc="http://purl.org/dc/elements/1.1/"
   xmlns:cc="http://creativecommons.org/ns#"
   xmlns:rdf="http://www.w3.org/1999/02/22-rdf-syntax-ns#"
   xmlns:svg="http://www.w3.org/2000/svg"
   xmlns="http://www.w3.org/2000/svg"
   xmlns:sodipodi="http://sodipodi.sourceforge.net/DTD/sodipodi-0.dtd"
   xmlns:inkscape="http://www.inkscape.org/namespaces/inkscape"
   width="6.75in"
   height="6.75in"
   viewBox="0 0 171.45 171.45"
   version="1.1"
   id="svg3943"
   sodipodi:docname="WU-logo-red-square.svg"
   inkscape:version="0.92.5 (2060ec1f9f, 2020-04-08)">
  <defs
     id="defs3937">
    <style
       id="style1212">.cls-1{opacity:0.35;}.cls-2{fill:#991d1d;}.cls-3{fill:#162933;}.cls-4{font-size:170px;fill:#fff;font-family:MarcelleScript, Marcelle Script;}</style>
  </defs>
  <sodipodi:namedview
     id="base"
     pagecolor="#ffffff"
     bordercolor="#666666"
     borderopacity="1.0"
     inkscape:pageopacity="0.0"
     inkscape:pageshadow="2"
     inkscape:zoom="1"
     inkscape:cx="-147.91522"
     inkscape:cy="212.11282"
     inkscape:document-units="in"
     inkscape:current-layer="layer2"
     showgrid="false"
     inkscape:showpageshadow="false"
     inkscape:window-width="2508"
     inkscape:window-height="1376"
     inkscape:window-x="52"
     inkscape:window-y="27"
     inkscape:window-maximized="1"
     units="in" />
  <metadata
     id="metadata3940">
    <rdf:RDF>
      <cc:Work
         rdf:about="">
        <dc:format>image/svg+xml</dc:format>
        <dc:type
           rdf:resource="http://purl.org/dc/dcmitype/StillImage" />
        <dc:title />
      </cc:Work>
    </rdf:RDF>
  </metadata>
  <g
     inkscape:label="bg"
     inkscape:groupmode="layer"
     id="layer1"
     transform="translate(0,-125.54998)"
     style="display:inline">
    <circle
       style="opacity:1;fill:#9a1c1d;fill-opacity:1;stroke:none;stroke-width:0.53710419;stroke-linecap:round;stroke-linejoin:round;stroke-miterlimit:4;stroke-dasharray:none;stroke-dashoffset:0;stroke-opacity:1"
       id="path812"
       cx="85.724998"
       cy="211.27498"
       r="85.724998" />
  </g>
  <g
     inkscape:groupmode="layer"
     id="layer2"
     inkscape:label="circle"
     style="display:inline">
    <g
       transform="matrix(0.17316986,0,0,0.17316986,5.1040385,23.376922)"
       style="display:inline;opacity:1;fill:#b27979;fill-opacity:1"
       id="Circle_Red"
       data-name="Circle Red"
       class="cls-1">
      <path
         style="fill:#b27979;fill-opacity:1"
         inkscape:connector-curvature="0"
         class="cls-2"
         d="m 1540.25,1991.61 a 3.93,3.93 0 0 0 -1.73,0.68 q -52.61,26.3 -105.19,52.63 c -7.32,3.68 -14.59,7.43 -21.91,11.09 l -98.42,49.23 c -7.33,3.67 -14.67,7.32 -22,11 -8.2,4.13 -16.36,8.34 -24.57,12.45 q -48.27,24.16 -96.56,48.29 c -5.31,2.65 -10.63,5.29 -15.93,8 -7.64,3.86 -15.26,7.77 -22.91,11.61 -3.35,1.69 -6.81,3.15 -10.11,4.93 -8.05,4.33 -16.3,8.27 -24.47,12.37 q -45,22.56 -90.07,45.07 c -3.4,1.7 -6.71,3.57 -10.14,5.2 -4.12,2 -8.1,4.18 -12.26,6.07 -2.2,1 -4.38,2.1 -6.51,3.29 -3.49,1.95 -7.14,3.61 -10.71,5.42 a 1.41,1.41 0 0 1 -1.7,-0.18 c -4,-3.12 -8.18,-6.15 -12.09,-9.46 -1.52,-1.29 -3.1,-2.52 -4.58,-3.86 -0.85,-0.77 -0.78,-0.92 0.19,-1.48 2.39,-1.36 4.9,-2.48 7.33,-3.74 1.93,-1 4,-1.76 5.84,-2.95 1.47,-0.93 3.17,-1.48 4.73,-2.27 5.06,-2.56 10.09,-5.19 15.16,-7.73 q 31.07,-15.57 62.15,-31.1 21.6,-10.8 43.2,-21.6 c 4.23,-2.12 8.38,-4.42 12.65,-6.46 3.56,-1.71 7.12,-3.39 10.64,-5.18 34.24,-17.48 68.72,-34.47 103.07,-51.72 6.09,-3.07 12.27,-6 18.28,-9.19 4.62,-2.47 9.33,-4.77 14,-7.07 4.1,-2 8.21,-4 12.27,-6.07 q 16.11,-8.24 32.3,-16.29 l 66.7,-33.36 c 5.71,-2.85 11.43,-5.69 17.12,-8.57 3.89,-2 7.7,-4.1 11.65,-6 q 7.2,-3.39 14.28,-7 c 30.65,-15.67 61.56,-30.84 92.31,-46.32 6,-3 12.09,-6 18.13,-9.08 4.85,-2.44 9.72,-4.85 14.52,-7.39 3.36,-1.78 6.84,-3.33 10.26,-5 1.18,-0.57 2.33,-1.19 3.6,-1.84 a 3.6,3.6 0 0 1 0.69,2.39 c 0,1.5 0,3 0,4.51 0,0.55 -0.1,1.18 0.73,1.27 z"
         transform="translate(-714.7,-1630.67)"
         id="path1218" />
      <path
         style="fill:#b27979;fill-opacity:1"
         inkscape:connector-curvature="0"
         class="cls-2"
         d="m 820.25,1992.36 a 11.52,11.52 0 0 0 2.82,-1.43 q 36.66,-18.29 73.28,-36.62 c 4.25,-2.12 8.57,-4.1 12.72,-6.4 5.1,-2.83 10.45,-5.12 15.63,-7.76 40,-20.44 80.4,-40.29 120.56,-60.49 3.68,-1.86 7.28,-3.88 11,-5.64 3.72,-1.76 7.55,-3.61 11.28,-5.51 40.12,-20.43 80.5,-40.32 120.72,-60.54 3.4,-1.71 6.73,-3.52 10.13,-5.22 3.69,-1.84 7.42,-3.59 11.12,-5.42 1.9,-0.94 3.71,-2.07 5.64,-2.93 2.17,-1 4.22,-2.15 6.33,-3.21 q 53.7,-26.85 107.39,-53.72 c 4.57,-2.29 9.06,-4.75 13.67,-7 4,-1.92 8,-3.81 12,-5.87 13.31,-7 26.84,-13.48 40.21,-20.29 a 2.87,2.87 0 0 1 3.69,0.28 c 4.23,3.49 8.67,6.73 12.81,10.35 a 31.43,31.43 0 0 1 2.82,2.46 c 0.74,0.83 0.72,0.91 -0.3,1.48 -0.33,0.19 -0.67,0.34 -1,0.51 l -20.33,10.16 c -7.11,3.56 -14.23,7.1 -21.33,10.68 -4.55,2.29 -9,4.75 -13.64,6.94 q -4.59,2.16 -9.11,4.45 c -5.24,2.63 -10.43,5.39 -15.7,8 -4,2 -8,3.9 -11.9,5.91 -3.9,2.01 -7.85,3.82 -11.74,5.81 -3.48,1.79 -6.91,3.71 -10.5,5.3 -1.53,0.68 -3,1.59 -4.49,2.33 -6.47,3.15 -12.91,6.38 -19.35,9.6 q -8.62,4.31 -17.21,8.75 c -3.61,1.86 -7.26,3.64 -10.91,5.42 -6.13,3 -12.21,6.08 -18.31,9.13 -9.51,4.76 -19,9.49 -28.52,14.29 q -5.42,2.73 -10.82,5.51 c -3.83,2 -7.74,3.8 -11.58,5.76 -4.61,2.36 -9.33,4.5 -13.9,6.94 -7.11,3.8 -14.35,7.37 -21.62,10.85 -3.2,1.54 -6.39,3.13 -9.54,4.74 -9.08,4.65 -18.24,9.14 -27.34,13.75 -5.35,2.71 -10.72,5.37 -16.09,8.06 l -15.06,7.53 c -7.5,3.75 -15,7.43 -22.48,11.29 -3,1.58 -6.09,3.19 -9.18,4.67 -3.09,1.48 -6.33,3.24 -9.57,4.73 -3.24,1.49 -6.14,3.06 -9.2,4.6 -9.27,4.64 -18.5,9.38 -27.81,14 -6.8,3.33 -13.55,6.78 -20.31,10.2 -5.51,2.8 -11.06,5.55 -16.59,8.31 -5,2.49 -10,5 -14.94,7.48 -4.11,2.07 -8.14,4.3 -12.3,6.28 -7.91,3.76 -15.71,7.74 -23.55,11.65 -4.28,2.13 -8.47,4.47 -12.79,6.52 -2.93,1.39 -5.77,3 -8.74,4.29 -2.97,1.29 -5.56,2.79 -8.33,4.2 q -2.33,1.18 -4.66,2.36 c -4,2 -7.91,4 -11.89,6 -4.38,2.16 -8.74,4.35 -13.13,6.49 -6.69,3.25 -13.23,6.81 -19.88,10.14 -1.9,1 -3.85,1.8 -5.71,2.83 -0.75,0.42 -1.12,0.22 -1.27,-0.64 a 2.63,2.63 0 0 1 0,-0.56 c 0,-4.19 -0.61,-8.36 -0.42,-12.56 0,-0.6 0.34,-1.46 -0.72,-1.65 z"
         transform="translate(-714.7,-1630.67)"
         id="path1220" />
      <path
         style="fill:#b27979;fill-opacity:1"
         inkscape:connector-curvature="0"
         class="cls-2"
         d="m 1540.25,2004.39 c -0.33,0 -0.63,0.18 -0.68,0.53 a 9.51,9.51 0 0 0 0,1.31 c 0,4.06 -0.37,8.1 -0.69,12.14 a 52.56,52.56 0 0 0 -0.42,5.59 2.58,2.58 0 0 1 -1.7,2.73 c -8.26,4.07 -16.49,8.21 -24.72,12.33 -4.82,2.41 -9.65,4.79 -14.45,7.23 -47.39,24.08 -95.06,47.61 -142.56,71.47 -7.14,3.59 -14.24,7.27 -21.38,10.85 q -51,25.53 -102,51 c -6.83,3.42 -13.7,6.76 -20.48,10.26 -6.78,3.5 -13.59,6.95 -20.41,10.36 l -100.15,50.09 q -10.9,5.45 -21.82,10.92 c -7.76,3.91 -15.48,7.88 -23.24,11.77 q -24.6,12.34 -49.2,24.66 a 3.21,3.21 0 0 1 -3.74,-0.23 c -4,-2.72 -8.2,-5.26 -12.3,-7.9 -1.57,-1 -3.09,-2.12 -4.64,-3.18 -2,-1.39 -2,-1.44 0.1,-2.51 L 1003,2270.2 c 15.18,-7.59 30.4,-15.12 45.53,-22.79 47.41,-24.05 95.07,-47.59 142.57,-71.46 6.58,-3.31 13.13,-6.72 19.72,-10 41.55,-20.79 83.18,-41.45 124.66,-62.39 45.83,-23.13 91.85,-45.89 137.68,-69 21.46,-10.84 43,-21.57 64.45,-32.37 a 4.49,4.49 0 0 1 2.66,-0.76 z"
         transform="translate(-714.7,-1630.67)"
         id="path1222" />
      <path
         style="fill:#b27979;fill-opacity:1"
         inkscape:connector-curvature="0"
         class="cls-2"
         d="m 889.06,1780.32 c 0.28,-1.71 1.57,-2.85 2.53,-4.1 3.93,-5.16 7.85,-10.33 12.06,-15.27 q 4.79,-5.64 9.67,-11.19 c 2.23,-2.54 4.71,-4.83 6.82,-7.47 a 20.14,20.14 0 0 1 7.06,-5.12 l 70.23,-35.1 c 6.55,-3.28 13.1,-6.53 19.63,-9.83 4.35,-2.19 8.64,-4.48 13,-6.65 4.36,-2.17 8.92,-4.21 13.28,-6.5 10.24,-5.39 20.64,-10.45 31,-15.64 18.65,-9.37 37.35,-18.66 56,-28 a 17.27,17.27 0 0 1 5.89,-1.69 c 4,-0.45 8,-0.94 12.08,-1.22 3.29,-0.23 6.59,-0.5 9.88,-0.77 2.62,-0.21 5.23,-0.25 7.85,-0.31 0.56,0 1.19,0.09 1.27,-0.74 h 18.8 c 0.09,0.75 -0.32,1.11 -1,1.41 q -5.67,2.68 -11.25,5.56 c -6.41,3.28 -12.86,6.46 -19.29,9.71 -9.38,4.73 -18.79,9.39 -28.17,14.11 -3.73,1.87 -7.37,3.94 -11.15,5.69 -5.51,2.55 -10.9,5.35 -16.33,8 -6.24,3.11 -12.42,6.36 -18.66,9.48 -4.18,2.11 -8.46,4 -12.62,6.17 -11,5.63 -22,11.14 -33,16.64 q -26.94,13.47 -53.87,27 c -4.07,2 -8.16,4 -12.24,6.09 -5,2.51 -10.06,5 -15.07,7.55 -4.23,2.14 -8.41,4.36 -12.64,6.48 -5,2.48 -10,4.85 -15,7.32 -3.74,1.86 -7.41,3.85 -11.14,5.72 q -12.4,6.24 -24.83,12.42 a 5.09,5.09 0 0 1 -0.89,0.26 z"
         transform="translate(-714.7,-1630.67)"
         id="path1224" />
      <path
         style="fill:#b27979;fill-opacity:1"
         inkscape:connector-curvature="0"
         class="cls-2"
         d="m 1179.31,2350.67 c 0,-0.64 0.24,-0.93 0.84,-1.24 2.27,-1.18 4.57,-2.31 6.86,-3.44 4.2,-2.09 8.34,-4.28 12.53,-6.37 q 57.56,-28.76 115.09,-57.58 c 4.8,-2.41 9.64,-4.74 14.42,-7.18 40,-20.41 80.37,-40.27 120.52,-60.48 3,-1.48 5.92,-2.92 8.82,-4.52 2.74,-1.49 5.62,-2.72 8.42,-4.08 0.56,-0.27 1.08,-0.6 1.66,-0.92 0.48,0.59 0,1 -0.22,1.34 -3,3.79 -5.84,7.63 -8.93,11.31 -2,2.44 -4,4.92 -6,7.4 -0.94,1.16 -2,2.19 -3,3.37 -1.44,1.8 -3.13,3.4 -4.66,5.13 -3.74,4.22 -7.78,8.15 -11.75,12.14 a 10.09,10.09 0 0 1 -2.73,1.95 q -12.53,6.24 -25,12.52 c -2.55,1.29 -5.06,2.68 -7.62,4 -3.41,1.7 -6.86,3.29 -10.26,5 -2.86,1.43 -5.65,3 -8.5,4.4 q -13.26,6.66 -26.53,13.27 -42.33,21.18 -84.66,42.35 c -4.62,2.31 -9.14,4.82 -13.82,7 -4.68,2.18 -9.16,4.58 -13.79,6.76 a 16.62,16.62 0 0 0 -2.28,1.25 c -3.82,2.57 -8.21,2.77 -12.53,3.28 -2.41,0.28 -4.82,0.6 -7.23,0.88 -1.79,0.21 -3.58,0.51 -5.38,0.58 -2.25,0.09 -4.51,0.25 -6.71,0.53 -2.67,0.33 -5.36,0.08 -8,0.55 a 35.26,35.26 0 0 1 -5.82,0.1 c -0.55,0 -1.18,-0.1 -1.27,0.73 z"
         transform="translate(-714.7,-1630.67)"
         id="path1226" />
      <path
         style="fill:#b27979;fill-opacity:1"
         inkscape:connector-curvature="0"
         class="cls-2"
         d="m 880.38,2187.84 c -0.82,0 -1.13,-0.59 -1.49,-1.11 -1.93,-2.78 -3.63,-5.69 -5.43,-8.55 -1.56,-2.5 -2.68,-5.23 -4.07,-7.83 a 0.93,0.93 0 0 1 0.53,-1.48 c 0.35,-0.16 0.68,-0.34 1,-0.51 l 68.07,-34 c 6.93,-3.47 13.9,-6.85 20.79,-10.41 8,-4.14 16,-8.15 24.05,-12.19 3.91,-2 7.73,-4.15 11.71,-5.91 5,-2.19 9.69,-4.85 14.58,-7.19 4.62,-2.2 9.17,-4.6 13.75,-6.92 8.54,-4.31 17.12,-8.57 25.69,-12.85 7.27,-3.63 14.57,-7.2 21.79,-10.94 3.38,-1.75 6.78,-3.48 10.2,-5.14 4.72,-2.29 9.32,-4.83 14.15,-6.89 a 35.69,35.69 0 0 0 3.22,-1.89 c 2.36,-1.29 4.86,-2.27 7.23,-3.53 3.68,-2 7.37,-3.94 11.23,-5.57 1.25,-0.53 2.42,-1.27 3.63,-1.91 a 9.91,9.91 0 0 1 1.16,-0.62 c 3.12,-1.26 6,-3 9,-4.49 4.9,-2.49 9.79,-5 14.74,-7.38 4.95,-2.38 9.74,-5 14.65,-7.42 11,-5.39 22,-11 33,-16.41 3.52,-1.75 7,-3.59 10.5,-5.33 l 11.12,-5.48 c 4.36,-2.14 8.76,-4.24 13,-6.54 4.12,-2.22 8.28,-4.34 12.5,-6.31 4.22,-1.97 8.19,-4.24 12.4,-6.14 3.17,-1.44 6.13,-3.35 9.32,-4.74 3,-1.32 5.89,-3 8.87,-4.41 5.13,-2.44 10.14,-5.14 15.21,-7.69 q 14.09,-7.08 28.2,-14.1 c 5.48,-2.74 11,-5.38 16.47,-8.17 7.79,-4 15.66,-7.82 23.45,-11.8 4.85,-2.47 9.74,-4.85 14.6,-7.3 4,-2 7.81,-4.19 11.82,-6 3.75,-1.73 7.48,-3.5 11.1,-5.47 5.21,-2.83 10.59,-5.35 15.9,-8 5.15,-2.54 10.26,-5.15 15.37,-7.74 16.49,-8.34 33,-16.52 49.55,-24.83 10.68,-5.38 21.4,-10.7 32.09,-16.06 1.34,-0.67 2.61,-1.48 4,-2.1 1.39,-0.62 1.36,-0.52 2,0.79 1.82,4 3.41,8 5,12.14 0.58,1.51 1.13,3 1.72,4.56 0.71,1.81 0.59,2.22 -1.15,3.11 -2.22,1.13 -4.44,2.25 -6.68,3.35 -4.15,2 -8.34,4 -12.47,6.07 -8.48,4.26 -16.92,8.61 -25.41,12.86 q -33.79,16.93 -67.62,33.83 l -22.51,11.25 c -4.18,2.09 -8.38,4.18 -12.56,6.3 -3.6,1.83 -7.12,3.86 -10.8,5.52 -5.34,2.41 -10.44,5.28 -15.72,7.8 -5.86,2.8 -11.57,5.88 -17.37,8.79 q -17.37,8.72 -34.77,17.39 c -11.76,5.88 -23.53,11.72 -35.26,17.66 -5.35,2.71 -10.77,5.27 -16,8.11 -4.82,2.59 -9.73,5 -14.67,7.36 -3.44,1.64 -6.72,3.58 -10.2,5.13 -3.08,1.38 -6.09,2.91 -9.08,4.45 -8.85,4.53 -17.75,8.95 -26.64,13.41 -8.89,4.46 -18,9 -27,13.5 l -27.84,13.81 q -12.74,6.38 -25.46,12.75 c -3.44,1.73 -6.84,3.56 -10.28,5.28 -3.06,1.53 -6.17,3 -9.23,4.48 -1.12,0.55 -2.17,1.24 -3.29,1.79 -3,1.49 -6.11,2.89 -9.13,4.41 -5.68,2.86 -11.33,5.79 -17,8.66 -4.24,2.15 -8.5,4.26 -12.75,6.39 l -15.38,7.7 -22.17,11.07 c -7,3.5 -14,7 -21,10.5 -4.89,2.47 -9.7,5.15 -14.68,7.45 -4,1.83 -7.79,3.94 -11.74,5.8 -3.22,1.5 -6.27,3.35 -9.49,4.85 -3.74,1.74 -7.33,3.76 -11.09,5.48 -4.52,2.06 -8.87,4.48 -13.3,6.75 -2.55,1.31 -5.16,2.49 -7.7,3.82 -4.54,2.37 -9.16,4.62 -13.75,6.91 l -14.94,7.47 c -0.4,0.22 -0.86,0.42 -1.24,0.6 z"
         transform="translate(-714.7,-1630.67)"
         id="path1228" />
      <path
         style="fill:#b27979;fill-opacity:1"
         inkscape:connector-curvature="0"
         class="cls-2"
         d="m 1492.84,1812.78 a 1,1 0 0 1 -0.69,1.17 l -3,1.51 c -5,2.52 -10,5 -14.89,7.56 -5.14,2.7 -10.36,5.25 -15.56,7.83 -2.75,1.37 -5.57,2.58 -8.29,4 -10.19,5.35 -20.52,10.42 -30.82,15.54 -3.58,1.78 -7.18,3.53 -10.74,5.34 -3.95,2 -7.93,4 -11.87,6 -7.68,3.93 -15.43,7.74 -23.14,11.6 -5.54,2.76 -11.11,5.46 -16.59,8.32 -3.38,1.77 -6.76,3.53 -10.19,5.17 -9.09,4.35 -18,9 -27.06,13.45 -4.37,2.15 -8.66,4.47 -13,6.66 -6.42,3.24 -12.83,6.5 -19.3,9.62 -3,1.44 -5.89,3 -8.88,4.4 -3.62,1.68 -7.12,3.63 -10.7,5.42 -8.49,4.25 -17,8.47 -25.47,12.76 -4.23,2.13 -8.41,4.39 -12.67,6.44 -12.07,5.8 -24,12 -36,17.88 -4,1.95 -7.87,4.07 -11.83,6 -4.41,2.21 -8.92,4.24 -13.29,6.52 q -12.57,6.54 -25.28,12.76 c -4.82,2.35 -9.6,4.76 -14.39,7.16 -4.79,2.4 -9.83,4.95 -14.75,7.43 -8.6,4.34 -17.22,8.63 -25.83,12.94 l -12.06,6 -16.11,8 c -5,2.49 -10,5 -14.93,7.48 -3.56,1.8 -7,3.77 -10.66,5.46 -4,1.88 -7.94,3.93 -11.9,5.9 -4.8,2.38 -9.62,4.74 -14.41,7.15 -3.61,1.83 -7.22,3.68 -10.85,5.48 -3.63,1.8 -7.12,3.6 -10.64,5.46 -3.92,2.07 -7.95,4 -11.94,5.93 -6,3 -12,5.83 -17.89,9 -5,2.68 -10.15,4.88 -15.14,7.49 -3.71,1.93 -7.41,3.91 -11.17,5.71 -7.46,3.57 -14.81,7.36 -22.21,11 -5.47,2.7 -10.87,5.57 -16.32,8.31 -3.34,1.68 -6.75,3.22 -10.1,4.9 -3.35,1.68 -6.74,3.51 -10.14,5.22 -6,3 -12,6 -18,9 -2.44,1.22 -2.41,1.19 -3.68,-1.24 a 130.93,130.93 0 0 1 -7,-15.95 c -0.32,-0.89 -0.22,-1.4 0.62,-1.83 1.83,-0.93 3.65,-1.86 5.45,-2.86 4,-2.2 8.19,-3.95 12.24,-6.06 3,-1.58 6.21,-3 9.25,-4.56 8.79,-4.65 17.73,-9 26.62,-13.46 q 30.81,-15.45 61.65,-30.84 c 8.11,-4.06 16.23,-8.09 24.33,-12.17 4.45,-2.24 8.83,-4.65 13.32,-6.79 4.29,-2 8.57,-4.11 12.8,-6.28 30.31,-15.48 60.85,-30.52 91.26,-45.8 8.26,-4.15 16.55,-8.26 24.81,-12.42 4.35,-2.19 8.65,-4.47 13,-6.65 3.24,-1.62 6.54,-3.12 9.78,-4.74 3.4,-1.7 6.74,-3.52 10.14,-5.22 l 84.84,-42.45 c 3.4,-1.7 6.74,-3.53 10.16,-5.19 q 7.5,-3.64 15,-7.38 c 4.46,-2.23 8.86,-4.57 13.32,-6.81 2.4,-1.21 4.87,-2.27 7.27,-3.49 31.46,-16 63.08,-31.67 94.64,-47.48 q 12.81,-6.42 25.64,-12.83 c 4.39,-2.22 8.7,-4.62 13.16,-6.7 4.08,-1.91 8.09,-4 12.13,-6 3.23,-1.6 6.4,-3.33 9.63,-5 3.89,-2 7.89,-3.72 11.72,-5.78 4.2,-2.25 8.49,-4.29 12.73,-6.46 3.72,-1.9 7.47,-3.76 11.22,-5.62 1.76,-0.87 2.09,-0.73 3.13,1 2.56,4.22 5.16,8.42 7.73,12.63 0.55,0.91 1.06,1.84 1.59,2.77 a 3.58,3.58 0 0 1 0.2,0.69 z"
         transform="translate(-714.7,-1630.67)"
         id="path1230" />
      <path
         style="fill:#b27979;fill-opacity:1"
         inkscape:connector-curvature="0"
         class="cls-2"
         d="m 1477,1787.45 a 0.83,0.83 0 0 1 -0.43,0.64 26.84,26.84 0 0 1 -2.44,1.39 c -4.43,2 -8.71,4.34 -13.07,6.51 -6.42,3.2 -12.75,6.59 -19.28,9.59 -3.17,1.46 -6.22,3.21 -9.34,4.77 q -22.17,11.12 -44.35,22.19 l -14.23,7.12 c -7.26,3.63 -14.53,7.24 -21.79,10.9 -4.84,2.43 -9.58,5.08 -14.49,7.36 -4.91,2.28 -9.43,4.83 -14.25,7 -3.45,1.58 -6.73,3.53 -10.15,5.18 -6.12,3 -12.15,6.16 -18.28,9.13 -2.74,1.33 -5.48,2.66 -8.19,4.08 -5.81,3.05 -11.7,6 -17.59,8.84 -4.77,2.35 -9.57,4.67 -14.29,7.1 -6.12,3.14 -12.31,6.17 -18.41,9.36 -7.69,4 -15.57,7.7 -23.33,11.58 -6.25,3.13 -12.44,6.37 -18.69,9.5 -4.75,2.38 -9.57,4.63 -14.32,7 -8.5,4.27 -16.91,8.7 -25.47,12.84 q -5.74,2.78 -11.41,5.67 c -15.21,7.8 -30.57,15.3 -45.82,23 -6.12,3.09 -12.27,6.13 -18.4,9.21 -5,2.53 -10,5.1 -15,7.63 q -8.61,4.35 -17.24,8.66 c -4.9,2.44 -9.89,4.69 -14.73,7.24 -6.2,3.27 -12.47,6.4 -18.76,9.48 -2.85,1.4 -5.73,2.76 -8.54,4.22 -9.45,4.89 -19,9.55 -28.51,14.34 q -12.31,6.21 -24.68,12.35 c -7.38,3.7 -14.81,7.31 -22.13,11.11 -3.26,1.7 -6.6,3.22 -9.82,5 -3.22,1.78 -6.9,3.2 -10.2,5.06 -4.09,2.31 -8.42,4.1 -12.59,6.24 -2.76,1.41 -5.56,2.81 -8.32,4.22 q -9.36,4.78 -18.77,9.45 c -3.74,1.85 -7.5,3.67 -11.23,5.55 q -7.95,4 -15.9,8 c -0.27,0.14 -0.55,0.29 -0.84,0.42 -1.38,0.67 -1.67,0.6 -2.16,-0.88 -1.19,-3.62 -2.33,-7.25 -3.45,-10.9 -0.69,-2.26 -1.24,-4.58 -2,-6.83 -0.35,-1 -0.09,-1.51 0.81,-2.1 a 68.93,68.93 0 0 1 7.54,-3.78 c 2.5,-1.24 5,-2.53 7.49,-3.8 2.49,-1.27 5.26,-2.57 7.84,-4 2.91,-1.56 5.92,-3 8.88,-4.46 q 49.9,-25 99.82,-49.94 c 2.85,-1.42 5.63,-3 8.48,-4.39 3.46,-1.73 7,-3.31 10.39,-5.17 2.12,-1.18 4.39,-2.09 6.57,-3.17 1.46,-0.72 2.85,-1.57 4.3,-2.3 l 113.41,-56.73 c 3.74,-1.87 7.41,-3.86 11.15,-5.72 3.9,-1.95 7.86,-3.77 11.75,-5.73 7.48,-3.76 14.92,-7.62 22.41,-11.37 q 48.48,-24.27 97,-48.5 c 3.73,-1.87 7.4,-3.86 11.13,-5.73 3.56,-1.79 7.19,-3.46 10.76,-5.24 3.07,-1.53 6.07,-3.19 9.14,-4.7 9.6,-4.73 19.15,-9.57 28.73,-14.32 7.85,-3.9 15.67,-7.87 23.5,-11.81 q 18.45,-9.3 37,-18.5 c 7.11,-3.56 14.22,-7.09 21.32,-10.66 3.13,-1.58 6.16,-3.33 9.33,-4.8 4.19,-1.94 8.2,-4.24 12.42,-6.13 4,-1.82 7.9,-4 11.86,-6 q 11.64,-5.86 23.32,-11.68 l 12.07,-6 c 1.74,-0.86 2.13,-0.81 3.33,0.75 2.08,2.72 4.11,5.49 6.14,8.26 1.44,2 2.86,4 4.24,6 a 3.68,3.68 0 0 1 0.76,1.4 z"
         transform="translate(-714.7,-1630.67)"
         id="path1232" />
      <path
         style="fill:#b27979;fill-opacity:1"
         inkscape:connector-curvature="0"
         class="cls-2"
         d="m 1527.35,1896.48 c 0,0.43 -0.34,0.71 -0.71,0.94 -0.53,0.33 -1.1,0.59 -1.66,0.87 l -97.14,48.59 c -3.68,1.84 -7.24,3.93 -11,5.6 -4.51,2 -8.87,4.35 -13.26,6.59 -11.66,5.94 -23.37,11.76 -35.06,17.63 q -29.9,15 -59.83,29.93 -11,5.49 -22,11 c -4.17,2.1 -8.29,4.3 -12.47,6.39 -4.18,2.09 -8.23,3.89 -12.26,6 -12.69,6.64 -25.57,12.91 -38.38,19.33 q -40.65,20.38 -81.33,40.7 c -4.12,2.06 -8.18,4.24 -12.3,6.3 -3.69,1.84 -7.42,3.59 -11.09,5.45 -6,3 -11.92,6.06 -17.9,9.05 Q 1049.9,2136.4 998.81,2162 c -5.24,2.62 -10.42,5.36 -15.66,8 -5.24,2.64 -10.76,5.2 -16.08,7.93 -22.35,11.46 -44.91,22.5 -67.34,33.8 -0.33,0.17 -0.68,0.31 -1,0.51 a 1.32,1.32 0 0 1 -2.05,-0.4 c -3.74,-4.85 -7.34,-9.79 -10.92,-14.75 -0.15,-0.2 -0.25,-0.44 -0.41,-0.63 -0.6,-0.7 -0.47,-1.19 0.36,-1.61 2.32,-1.19 4.61,-2.45 6.95,-3.63 q 10.83,-5.44 21.68,-10.84 l 61.32,-30.69 c 4.34,-2.17 8.58,-4.54 13,-6.6 4.42,-2.06 8.67,-4.22 13,-6.37 7.53,-3.78 15,-7.65 22.54,-11.43 5.29,-2.66 10.67,-5.11 15.9,-7.86 5.77,-3 11.62,-5.89 17.44,-8.81 q 31.47,-15.78 63,-31.52 c 3.4,-1.7 6.78,-3.45 10.2,-5.11 6,-2.92 12,-5.95 18,-9 4.24,-2.14 8.43,-4.37 12.67,-6.49 3.39,-1.71 6.89,-3.23 10.25,-5 8.19,-4.31 16.5,-8.38 24.77,-12.52 q 32.58,-16.32 65.17,-32.61 13.66,-6.83 27.32,-13.66 c 4,-2 8,-4.17 12,-6.16 4.87,-2.39 9.66,-5 14.63,-7.19 2,-0.91 3.93,-2.13 6,-3.1 5.81,-2.79 11.43,-5.94 17.33,-8.54 2.51,-1.1 4.91,-2.45 7.34,-3.72 8.93,-4.67 18,-9 27,-13.6 9,-4.6 17.93,-8.93 26.87,-13.45 q 6.26,-3.18 12.52,-6.36 c 4.07,-2.07 8.21,-4 12.3,-6 4.74,-2.37 9.44,-4.84 14.19,-7.22 5.25,-2.62 10.49,-5.28 15.77,-7.84 10.45,-5.09 20.77,-10.45 31.16,-15.67 q 16.45,-8.25 32.92,-16.47 c 2.37,-1.18 2.47,-1.16 3.26,1.31 1.72,5.35 3.38,10.71 4.88,16.13 0.02,0.46 0.12,1.02 0.26,1.65 z"
         transform="translate(-714.7,-1630.67)"
         id="path1234" />
      <path
         style="fill:#b27979;fill-opacity:1"
         inkscape:connector-curvature="0"
         class="cls-2"
         d="m 827,2057.31 c -0.07,-1 0.55,-1.47 1.32,-1.86 2.86,-1.42 5.69,-2.91 8.58,-4.25 1.08,-0.5 2.1,-1.11 3.15,-1.64 q 48.51,-24.22 97,-48.49 c 6.32,-3.16 12.69,-6.22 19,-9.5 7.32,-3.82 14.72,-7.49 22.1,-11.19 l 96.78,-48.4 q 10.92,-5.46 21.83,-10.93 c 8.15,-4.11 16.25,-8.28 24.41,-12.36 q 50.49,-25.28 101,-50.52 c 5.09,-2.54 10.2,-5.05 15.27,-7.64 40.72,-20.73 81.71,-40.93 122.54,-61.45 5.18,-2.61 10.27,-5.39 15.52,-7.84 3.84,-1.8 7.59,-3.77 11.37,-5.68 4.35,-2.21 8.7,-4.43 13.06,-6.62 q 21.32,-10.7 42.65,-21.34 c 1.89,-0.94 1.94,-1 3.33,0.52 3.3,3.57 6.58,7.17 9.61,11 0.81,1 1.68,2 2.53,3 0.85,1 0.93,1.29 -0.44,2 l -0.67,0.34 q -46.39,23.2 -92.76,46.43 c -7.71,3.88 -15.39,7.82 -23.11,11.68 q -51.49,25.79 -103,51.53 c -5.36,2.68 -10.76,5.29 -16.07,8.06 -8.48,4.43 -17.05,8.66 -25.6,12.94 q -49.38,24.72 -98.78,49.42 c -7.22,3.61 -14.49,7.14 -21.65,10.85 -6.89,3.57 -13.81,7 -20.74,10.51 q -49.16,24.6 -98.3,49.16 c -6.83,3.42 -13.7,6.76 -20.48,10.27 -8.1,4.2 -16.27,8.27 -24.42,12.35 q -39.15,19.6 -78.3,39.17 c -2.17,1.08 -2.19,1.09 -2.76,-1.26 -1.41,-5.81 -2.65,-11.66 -3.81,-17.53 a 6.15,6.15 0 0 1 -0.16,-0.73 z"
         transform="translate(-714.7,-1630.67)"
         id="path1236" />
      <path
         style="fill:#b27979;fill-opacity:1"
         inkscape:connector-curvature="0"
         class="cls-2"
         d="m 1534.2,1926.43 a 0.93,0.93 0 0 1 -0.57,1 l -1.33,0.68 -41.17,20.6 c -6.14,3.07 -12.31,6.1 -18.42,9.21 -40.17,20.46 -80.62,40.35 -120.86,60.65 -5.91,3 -11.87,5.84 -17.76,8.84 -41.72,21.25 -83.73,41.94 -125.55,63 -3.57,1.79 -7.1,3.66 -10.69,5.4 -4.33,2.11 -8.66,4.21 -12.93,6.43 -7.89,4.1 -15.86,8 -23.81,12 q -47.46,23.76 -94.94,47.5 c -6,3 -12,5.94 -17.94,9 -42.18,21.45 -84.6,42.4 -126.89,63.64 -0.61,0.3 -1.2,0.66 -1.79,1 -1.5,0.91 -1.89,0.92 -3.07,-0.35 -1.87,-2 -3.66,-4.09 -5.48,-6.15 -1.82,-2.06 -3.7,-4.23 -5.55,-6.35 l -0.26,-0.27 c -2,-2.21 -2,-2.34 0.6,-3.63 24.59,-12.3 49.23,-24.51 73.76,-36.92 48.21,-24.4 96.68,-48.29 144.91,-72.65 48.23,-24.36 96.45,-48.17 144.56,-72.47 46.4,-23.43 93,-46.44 139.4,-69.88 39.5,-20 79.15,-39.63 118.7,-59.51 l 0.33,-0.17 c 2.38,-1.18 2.5,-1.1 3,1.41 0.64,3.11 1.35,6.21 2,9.32 0.59,2.8 1.13,5.61 1.69,8.42 0.05,0.1 0.05,0.23 0.06,0.25 z"
         transform="translate(-714.7,-1630.67)"
         id="path1238" />
      <path
         style="fill:#b27979;fill-opacity:1"
         inkscape:connector-curvature="0"
         class="cls-2"
         d="m 822.44,2026.38 c -0.33,-1.11 0.54,-1.77 1.81,-2.4 q 10.95,-5.38 21.85,-10.91 c 4.39,-2.21 8.68,-4.61 13.13,-6.69 5.17,-2.4 10.22,-5 15.31,-7.54 8.84,-4.41 17.62,-8.92 26.43,-13.36 7.66,-3.86 15.34,-7.68 23,-11.52 l 67,-33.51 21.9,-11 c 3.63,-1.82 7.31,-3.54 10.87,-5.48 4.52,-2.44 9.13,-4.69 13.73,-7 3,-1.47 6,-2.83 8.89,-4.36 7,-3.7 14.19,-7.18 21.3,-10.75 q 35.18,-17.64 70.4,-35.21 11.57,-5.78 23.13,-11.58 c 7.75,-3.91 15.48,-7.88 23.25,-11.78 9.27,-4.67 18.56,-9.29 27.84,-13.93 q 32.25,-16.12 64.48,-32.28 c 5,-2.52 10,-5 15,-7.51 5,-2.51 10.1,-5 15.07,-7.62 5.62,-3 11.36,-5.77 17.07,-8.6 4.85,-2.41 9.79,-4.67 14.58,-7.19 5.76,-3 11.61,-5.9 17.43,-8.82 q 31,-15.54 62,-31 a 30.1,30.1 0 0 1 2.81,-1.48 2.05,2.05 0 0 1 2.37,0.45 c 2.78,2.34 5.29,5 7.86,7.53 2,2 4.3,3.8 6.11,6.06 1,1.26 1.06,1.38 -0.44,2.11 -3.52,1.73 -7.11,3.35 -10.58,5.18 -10.7,5.62 -21.59,10.87 -32.38,16.3 q -23.93,12 -47.9,24 -14.86,7.44 -29.72,14.88 c -7.24,3.64 -14.41,7.42 -21.7,11 -6.11,3 -12.13,6.11 -18.21,9.15 l -75.27,37.64 q -13.35,6.67 -26.7,13.35 c -7.47,3.76 -14.86,7.69 -22.4,11.32 -4.83,2.32 -9.61,4.74 -14.38,7.16 -26.64,13.52 -53.43,26.73 -80.12,40.15 -9.34,4.69 -18.71,9.34 -28,14 -6.74,3.39 -13.45,6.88 -20.2,10.26 q -51.55,25.8 -103.11,51.59 c -5.59,2.8 -11.17,5.63 -16.75,8.43 -6.93,3.48 -13.74,7.21 -20.78,10.46 -3.29,1.52 -6.53,3.15 -9.74,4.81 -10.29,5.32 -20.72,10.36 -31,15.61 -2.34,1.19 -2.32,1.64 -2.87,-1.57 -0.55,-3.21 -1.1,-6.64 -1.42,-10 -0.28,-2.59 -0.72,-5.23 -0.95,-8.35 z"
         transform="translate(-714.7,-1630.67)"
         id="path1240" />
      <path
         style="fill:#b27979;fill-opacity:1"
         inkscape:connector-curvature="0"
         class="cls-2"
         d="m 1535.52,1936.05 a 15.71,15.71 0 0 1 1,4.66 c 0.44,3.4 0.92,6.79 1.23,10.2 0.17,1.92 0.44,3.83 0.66,5.75 a 2.43,2.43 0 0 1 -1.77,2.83 c -2.79,1.23 -5.43,2.8 -8.16,4.17 q -39,19.52 -78,39 -9.9,4.95 -19.79,9.91 c -5.5,2.78 -11,5.63 -16.48,8.39 -5.09,2.54 -10.23,5 -15.31,7.51 -11.77,5.91 -23.51,11.9 -35.28,17.8 -21.05,10.55 -42.14,21 -63.15,31.63 -5.47,2.76 -11,5.46 -16.42,8.23 -4.5,2.27 -9,4.58 -13.51,6.81 -3.58,1.77 -7.22,3.43 -10.77,5.27 -3.55,1.84 -7.06,3.69 -10.62,5.48 q -13.67,6.87 -27.35,13.69 l -49.73,24.87 -15.11,7.55 c -5.87,2.94 -11.75,5.85 -17.61,8.81 -6.5,3.28 -13,6.64 -19.49,9.91 -4.57,2.29 -9.22,4.39 -13.76,6.73 -19.57,10.13 -39.39,19.77 -59.07,29.69 -9,4.52 -17.92,9 -26.89,13.45 q -12.09,6 -24.18,12.11 c -4.29,2.16 -8.53,4.42 -12.83,6.57 -5,2.48 -10,4.84 -15,7.33 -8.59,4.31 -17.16,8.69 -25.74,13 a 13.94,13.94 0 0 1 -1.35,0.65 1.33,1.33 0 0 1 -1.41,-0.23 c -0.72,-0.6 -1.49,-1.15 -2.15,-1.8 -4.09,-4.06 -8.46,-7.82 -12.42,-12 l -0.66,-0.68 c -0.37,-0.39 -0.41,-0.75 0.14,-1 l 1.34,-0.69 27.12,-13.55 c 6.83,-3.42 13.66,-6.81 20.48,-10.25 3.95,-2 7.85,-4.07 11.81,-6.06 q 12.57,-6.33 25.16,-12.6 53.94,-27 107.87,-54 18.35,-9.24 36.7,-18.49 40.74,-20.4 81.49,-40.75 7.8,-3.9 15.59,-7.8 c 3.64,-1.82 7.29,-3.61 10.91,-5.46 38.2,-19.49 76.7,-38.39 115,-57.71 6.35,-3.2 12.74,-6.29 19.07,-9.51 4.79,-2.43 9.54,-4.93 14.34,-7.33 q 22.66,-11.37 45.36,-22.69 l 69.91,-35 z"
         transform="translate(-714.7,-1630.67)"
         id="path1242" />
      <path
         style="fill:#b27979;fill-opacity:1"
         inkscape:connector-curvature="0"
         class="cls-2"
         d="m 821,1982.31 c 0.07,-3.71 -0.25,-7.07 0.24,-10.43 a 4.81,4.81 0 0 0 0.11,-0.92 c -0.21,-3 0.51,-5.86 0.41,-8.8 0,-1.13 0.44,-2.19 0.4,-3.34 0,-0.78 0.6,-1.17 1.24,-1.5 2.65,-1.38 5.29,-2.78 8,-4.15 2.44,-1.25 4.91,-2.46 7.37,-3.69 q 62.5,-31.26 125,-62.52 c 7.26,-3.64 14.47,-7.4 21.73,-11 q 60.83,-30.45 121.66,-60.86 c 6.15,-3.08 12.23,-6.27 18.38,-9.35 q 62.33,-31.18 124.65,-62.37 c 7.26,-3.64 14.48,-7.39 21.74,-11 l 93.93,-47 c 0.28,-0.14 0.57,-0.26 0.84,-0.42 a 2.83,2.83 0 0 1 3.32,0.14 c 5.8,3.69 11.57,7.43 17.2,11.38 1.49,1 1.48,1.37 -0.2,2.22 q -12.78,6.39 -25.55,12.78 c -4.34,2.19 -8.63,4.48 -13,6.63 -2.86,1.41 -5.76,2.74 -8.57,4.21 -7.28,3.8 -14.64,7.4 -22,11.08 q -50.31,25.2 -100.66,50.36 c -4.79,2.4 -9.52,4.92 -14.31,7.32 q -22.82,11.43 -45.65,22.83 -40.92,20.46 -81.84,40.94 c -3.07,1.53 -6,3.27 -9.15,4.71 -3.4,1.57 -6.78,3.2 -10.1,5 -5.25,2.77 -10.56,5.41 -15.87,8.06 q -53.35,26.7 -106.71,53.39 c -3.85,1.92 -7.65,4 -11.49,5.89 -4.17,2.09 -8.43,4 -12.56,6.18 -8.92,4.69 -18,9.09 -27,13.61 q -29.71,14.92 -59.49,29.77 c -0.55,0.19 -1.07,0.43 -2.07,0.85 z"
         transform="translate(-714.7,-1630.67)"
         id="path1244" />
      <path
         style="fill:#b27979;fill-opacity:1"
         inkscape:connector-curvature="0"
         class="cls-2"
         d="m 823.42,1947.48 a 14.78,14.78 0 0 1 0.38,-3.84 c 0.38,-3 0.87,-6 1.33,-9.05 0.42,-2.65 0.86,-5.29 1.29,-7.93 0.19,-1.1 0.47,-2.19 0.59,-3.3 a 2.82,2.82 0 0 1 1.8,-2.41 c 3.49,-1.69 7,-3.46 10.42,-5.19 l 19,-9.48 q 14.23,-7.12 28.47,-14.25 c 9.37,-4.72 18.7,-9.5 28.08,-14.2 q 34.85,-17.46 69.72,-34.87 c 6.44,-3.22 12.88,-6.42 19.31,-9.66 4,-2 7.81,-4.16 11.82,-6 3.74,-1.74 7.44,-3.58 11.12,-5.46 32.9,-16.75 66,-33.1 99,-49.66 6.15,-3.09 12.31,-6.15 18.46,-9.23 9.21,-4.61 18.46,-9.16 27.64,-13.84 31.56,-16.1 63.35,-31.76 95,-47.67 l 18.13,-9.07 11.54,-5.76 c 5.54,-2.77 11.08,-5.52 16.6,-8.31 4.39,-2.22 8.75,-4.5 13.13,-6.73 2.73,-1.39 5.49,-2.69 8.19,-4.13 a 3.66,3.66 0 0 1 3.7,0 c 6.79,3.36 13.4,7 20.07,10.63 a 2,2 0 0 1 1,1 c -1.2,0.68 -2.39,1.44 -3.64,2.06 -4.44,2.18 -8.84,4.43 -13.3,6.57 -6.46,3.11 -12.8,6.49 -19.21,9.7 q -44.94,22.5 -89.89,45 c -5.31,2.65 -10.67,5.23 -15.94,8 -4.58,2.41 -9.21,4.74 -13.84,7.06 -3.8,1.9 -7.66,3.65 -11.44,5.58 -31.51,16.11 -63.27,31.69 -94.88,47.6 -6.32,3.18 -12.65,6.31 -19,9.5 -6.35,3.19 -12.63,6.56 -19,9.64 -5.41,2.59 -10.7,5.39 -16.06,8.08 q -55.51,27.76 -111,55.54 c -5.41,2.71 -10.76,5.53 -16.17,8.24 q -45.16,22.62 -90.35,45.19 a 4.45,4.45 0 0 1 -2.07,0.65 z"
         transform="translate(-714.7,-1630.67)"
         id="path1246" />
      <path
         style="fill:#b27979;fill-opacity:1"
         inkscape:connector-curvature="0"
         class="cls-2"
         d="m 1536.68,2036.47 c 0.56,1.78 0,3.39 -0.28,4.94 -1,6.46 -2.18,12.89 -3.3,19.33 a 2.48,2.48 0 0 1 -1.43,2 c -17.67,9 -35.48,17.78 -53.22,26.69 q -15.87,8 -31.76,15.89 -12.59,6.29 -25.15,12.59 c -5.3,2.67 -10.58,5.38 -15.86,8.09 -4.66,2.39 -9.38,4.64 -14.06,7 q -44.65,22.43 -89.36,44.73 c -7.38,3.69 -14.76,7.36 -22.13,11.08 -4,2 -7.83,4.11 -11.81,6 q -7.42,3.6 -14.79,7.32 -16.5,8.29 -33,16.59 -29.57,14.8 -59.15,29.59 c -7.88,4 -15.78,7.87 -23.65,11.83 -4.73,2.38 -9.4,4.88 -14.14,7.23 -4.93,2.43 -9.88,4.82 -14.78,7.3 q -17.32,8.76 -34.68,17.44 -22.68,11.35 -45.35,22.73 a 4.11,4.11 0 0 1 -4.19,0 c -5.45,-2.82 -11,-5.5 -16.37,-8.43 -1.15,-0.62 -2.3,-1.27 -3.44,-1.91 -0.38,-0.21 -0.87,-0.33 -0.91,-0.85 -0.04,-0.52 0.46,-0.69 0.84,-0.88 0.38,-0.19 0.89,-0.46 1.34,-0.68 l 87.23,-43.63 c 7.27,-3.63 14.58,-7.19 21.81,-10.92 10.61,-5.49 21.31,-10.8 32,-16.15 l 88.38,-44.21 c 6.48,-3.24 13,-6.41 19.44,-9.74 12.33,-6.37 24.78,-12.53 37.2,-18.75 q 29,-14.51 57.94,-29 l 22.34,-11.17 c 10.24,-5.12 20.53,-10.15 30.71,-15.39 11.17,-5.75 22.42,-11.34 33.66,-17 q 38.64,-19.35 77.28,-38.68 c 3.85,-1.93 7.72,-3.83 11.54,-5.84 3.41,-1.81 6.94,-3.43 10.44,-5.1 a 3.25,3.25 0 0 1 0.66,-0.04 z"
         transform="translate(-714.7,-1630.67)"
         id="path1248" />
      <path
         style="fill:#b27979;fill-opacity:1"
         inkscape:connector-curvature="0"
         class="cls-2"
         d="m 984.18,2078.09 c 5.81,-2.9 11.67,-5.73 17.42,-8.75 4.09,-2.15 8.19,-4.29 12.36,-6.29 6.65,-3.2 13.31,-6.42 19.86,-9.82 3.1,-1.61 6.22,-3.21 9.33,-4.79 4.58,-2.32 9.23,-4.48 13.83,-6.78 3.86,-1.92 7.66,-4 11.52,-5.9 3,-1.49 6,-2.77 9,-4.34 4.45,-2.41 9.09,-4.43 13.47,-7 2,-1.16 4.17,-2 6.24,-3 7.22,-3.6 14.47,-7.14 21.64,-10.84 4.26,-2.2 8.6,-4.25 12.85,-6.49 2.64,-1.4 5.42,-2.59 8.09,-4 6.45,-3.32 13,-6.45 19.43,-9.81 6.43,-3.36 13,-6.41 19.46,-9.64 3.74,-1.86 7.42,-3.85 11.14,-5.73 1.84,-0.93 3.76,-1.71 5.6,-2.64 8.89,-4.48 17.73,-9 26.66,-13.46 3,-1.49 6,-3 9.06,-4.45 2,-0.93 4,-2.1 5.93,-3.14 2.53,-1.33 5.16,-2.54 7.73,-3.82 4,-2 8,-4 11.86,-6 4.41,-2.36 8.88,-4.64 13.47,-6.66 2.11,-0.94 4.16,-2 6.23,-3.07 l 15,-7.48 c 3.63,-1.82 7.26,-3.65 10.9,-5.46 6.32,-3.16 12.71,-6.19 18.95,-9.51 q 9,-4.8 18.27,-9.23 c 5.19,-2.49 10.34,-5.08 15.5,-7.63 3,-1.5 5.95,-3.21 9,-4.64 4.69,-2.2 9.3,-4.56 13.9,-6.92 3.6,-1.84 7.27,-3.59 10.83,-5.56 2.1,-1.16 4.37,-2.11 6.55,-3.19 q 21.49,-10.74 43,-21.51 c 6.13,-3.07 12.17,-6.32 18.35,-9.28 4.15,-2 8.29,-4 12.37,-6.15 8.67,-4.51 17.47,-8.75 26.17,-13.18 0.39,-0.2 0.8,-0.37 1.17,-0.6 0.76,-0.46 1.24,-0.28 1.64,0.51 0.67,1.34 1.46,2.62 2.14,4 2.12,4.19 4.23,8.38 6.16,12.66 0.79,1.74 0.84,1.73 -0.94,2.62 l -47.72,23.87 -46.32,23.01 c -8.11,4.06 -16.22,8.09 -24.32,12.17 -3.85,1.94 -7.65,4 -11.51,5.91 -5.2,2.59 -10.5,5 -15.65,7.69 -10.64,5.59 -21.47,10.82 -32.2,16.24 q -6.76,3.4 -13.59,6.68 c -2,0.94 -3.84,2.07 -5.8,3 -4.42,2.18 -8.83,4.39 -13.25,6.59 l -4.82,2.43 -21,10.51 c -4.87,2.43 -9.75,4.84 -14.6,7.3 -3.67,1.85 -7.29,3.8 -11,5.65 -9.62,4.83 -19.2,9.75 -28.91,14.4 -4.17,2 -8.27,4.13 -12.43,6.15 -2.36,1.14 -4.64,2.46 -7,3.62 -4.08,2 -8.23,3.88 -12.26,6 -13,6.8 -26.17,13.16 -39.25,19.76 -6.36,3.21 -12.78,6.3 -19.09,9.59 -5.71,3 -11.56,5.66 -17.28,8.62 -4.38,2.27 -8.73,4.59 -13.17,6.73 -4.9,2.36 -9.79,4.73 -14.64,7.18 -2.29,1.16 -4.52,2.4 -6.81,3.55 -1.67,0.84 -3.41,1.55 -5.09,2.4 -5.41,2.74 -10.78,5.55 -16.2,8.26 -4.58,2.29 -9.27,4.36 -13.79,6.76 -9.34,5 -18.9,9.52 -28.33,14.31 -6.36,3.23 -12.76,6.38 -19.14,9.57 a 3.85,3.85 0 0 0 -0.49,-2.15 c -1,-2.06 -2.12,-4.09 -3.17,-6.13 a 18,18 0 0 1 -1.46,-6 c -0.24,-1.82 -0.89,-3.77 -0.21,-5.69 0.18,-0.48 -0.45,-0.63 -0.64,-1.01 z"
         transform="translate(-714.7,-1630.67)"
         id="path1250" />
      <path
         style="fill:#b27979;fill-opacity:1"
         inkscape:connector-curvature="0"
         class="cls-2"
         d="m 1325.76,1662.05 c -0.32,0.66 -1,0.77 -1.53,1 q -9.74,4.89 -19.49,9.76 l -52.92,26.47 -22.16,11.08 c -4.13,2.06 -8.29,4.06 -12.37,6.21 -4.08,2.15 -8,4.25 -12,6.14 -4.42,2 -8.74,4.26 -13.09,6.43 -8.66,4.33 -17.24,8.81 -25.93,13.09 -4.92,2.42 -9.85,4.84 -14.74,7.33 -13.39,6.82 -26.88,13.45 -40.3,20.21 -7.47,3.77 -15,7.41 -22.43,11.27 -4,2.07 -8,4.07 -12,6.05 -4.65,2.28 -9.22,4.7 -13.88,7 -4.88,2.37 -9.77,4.73 -14.6,7.24 -6.09,3.16 -12.18,6.32 -18.4,9.24 -3.22,1.52 -6.33,3.3 -9.54,4.85 -5.33,2.57 -10.65,5.2 -15.92,7.9 -12.44,6.35 -25,12.5 -37.44,18.79 -6.85,3.47 -13.73,6.87 -20.59,10.32 -5.06,2.55 -10.11,5.14 -15.17,7.7 -3.85,1.95 -7.69,3.91 -11.56,5.82 -3.69,1.83 -7.46,3.49 -11.1,5.41 -8.13,4.29 -16.39,8.32 -24.6,12.44 q -25.76,12.93 -51.54,25.78 c -0.65,0.32 -1.37,1.09 -2,0.63 -0.82,-0.57 -0.14,-1.48 0,-2.24 1.57,-7.39 3.75,-14.62 5.79,-21.89 a 6.19,6.19 0 0 1 3.52,-4.25 q 14.85,-7.24 29.56,-14.75 c 4,-2 8.07,-3.92 12,-6.11 2.55,-1.43 5.35,-2.42 7.89,-3.86 3,-1.73 6.24,-3.14 9.37,-4.68 3.8,-1.88 7.55,-3.84 11.34,-5.74 q 8.55,-4.29 17.11,-8.6 43.56,-21.83 87.13,-43.59 c 4.07,-2 8.08,-4.2 12.15,-6.24 3.63,-1.82 7.35,-3.47 11,-5.33 11.21,-5.82 22.52,-11.4 33.8,-17.06 l 35.71,-17.86 q 28,-14 56,-28 c 3.22,-1.62 6.39,-3.36 9.62,-5 3.23,-1.64 6.55,-3.11 9.78,-4.74 8.48,-4.27 16.93,-8.6 25.42,-12.86 3.61,-1.82 7.33,-3.46 10.92,-5.32 19.68,-10.19 39.62,-19.87 59.4,-29.87 q 10.47,-5.28 20.94,-10.58 a 1.72,1.72 0 0 1 1.24,0 41.81,41.81 0 0 1 6.55,2.24 c 5.86,2.16 11.63,4.56 17.38,7 a 3.37,3.37 0 0 1 1.68,1.17 z"
         transform="translate(-714.7,-1630.67)"
         id="path1252" />
      <path
         style="fill:#b27979;fill-opacity:1"
         inkscape:connector-curvature="0"
         class="cls-2"
         d="m 1529.83,2073.35 c 0.45,0.61 0.22,1.18 0.07,1.79 -1.85,7.58 -3.85,15.12 -6.25,22.54 -0.11,0.36 -0.23,0.72 -0.31,1.08 a 4.35,4.35 0 0 1 -2.57,3.19 q -35.57,17.73 -71.1,35.53 -13.34,6.67 -26.68,13.35 c -6.68,3.36 -13.33,6.82 -20,10.17 q -48,24 -96.07,48.05 -12.57,6.28 -25.15,12.59 c -3.56,1.79 -7.09,3.67 -10.65,5.48 -4.35,2.2 -8.72,4.37 -13.08,6.55 l -94.39,47.2 c -8.16,4.08 -16.35,8.1 -24.47,12.27 -6.27,3.23 -12.53,6.5 -18.9,9.56 -4.6,2.21 -9.18,4.5 -13.72,6.82 -11.54,5.9 -23.19,11.59 -34.75,17.46 -2,1 -4.07,1.94 -6,3.05 a 4.27,4.27 0 0 1 -3.93,0.24 c -5.85,-2.2 -11.74,-4.29 -17.51,-6.68 -2,-0.84 -4,-1.71 -6,-2.59 -0.87,-0.38 -0.9,-0.76 -0.13,-1.24 a 14.14,14.14 0 0 1 1.34,-0.69 L 1062,2307.8 q 11.71,-5.85 23.45,-11.73 c 3.83,-1.93 7.61,-4 11.45,-5.88 4.13,-2.07 8.32,-4 12.45,-6.08 4.44,-2.23 8.92,-4.39 13.32,-6.7 7.65,-4 15.41,-7.81 23.14,-11.68 q 39.87,-20 79.79,-39.92 c 3.84,-1.93 7.62,-4 11.46,-5.89 4.8,-2.4 9.66,-4.69 14.46,-7.08 4.41,-2.21 8.76,-4.53 13.17,-6.74 q 13,-6.54 26,-13 l 22.16,-11.09 32.59,-16.29 c 8.34,-4.17 16.7,-8.31 25,-12.53 4.5,-2.27 9,-4.55 13.52,-6.76 q 9.39,-4.59 18.69,-9.37 c 21.16,-10.85 42.51,-21.33 63.76,-32 q 12.93,-6.51 25.88,-13 9.48,-4.74 19,-9.49 c 3.72,-1.87 7.35,-3.94 11.14,-5.67 2.48,-1.11 4.75,-2.68 7.4,-3.55 z"
         transform="translate(-714.7,-1630.67)"
         id="path1254" />
      <path
         style="fill:#b27979;fill-opacity:1"
         inkscape:connector-curvature="0"
         class="cls-2"
         d="m 841.53,1871.18 c -0.41,-0.77 0.06,-1.34 0.26,-1.87 2.22,-6 4.48,-12.06 7,-18 1.19,-2.75 2.41,-5.49 3.56,-8.26 a 4.62,4.62 0 0 1 2.43,-2.43 q 53.63,-26.78 107.23,-53.61 c 4.6,-2.29 9.2,-4.56 13.78,-6.89 41.79,-21.27 83.85,-42 125.75,-63.05 5.08,-2.56 10.18,-5.08 15.26,-7.64 8,-4 15.91,-8.12 23.9,-12.12 q 52.85,-26.44 105.7,-52.86 c 3.07,-1.54 6.15,-3.07 9.21,-4.63 a 3.58,3.58 0 0 1 2.5,-0.3 c 8.62,1.81 17.09,4.16 25.53,6.65 a 21.5,21.5 0 0 1 3.81,1.26 c -0.32,0.75 -1,0.89 -1.6,1.17 l -28.7,14.4 c -5.54,2.77 -11.09,5.52 -16.62,8.31 -6.8,3.44 -13.56,7 -20.37,10.35 q -62.17,31.13 -124.35,62.2 c -6.82,3.42 -13.58,7 -20.41,10.37 q -51.32,25.69 -102.65,51.37 c -5.25,2.64 -10.52,5.26 -15.76,7.91 q -6.91,3.49 -13.86,7 c -4.31,2.15 -8.59,4.37 -12.9,6.53 l -86.68,43.36 a 5.09,5.09 0 0 1 -2.02,0.78 z"
         transform="translate(-714.7,-1630.67)"
         id="path1256" />
      <path
         style="fill:#b27979;fill-opacity:1"
         inkscape:connector-curvature="0"
         class="cls-2"
         d="m 1518.39,2112.75 a 17.28,17.28 0 0 1 -1.34,4.17 c -2.17,5.85 -4.55,11.63 -7,17.38 -1,2.47 -2.2,4.9 -3.32,7.35 a 4.22,4.22 0 0 1 -2.24,1.89 l -27.06,13.52 c -5.54,2.77 -11.08,5.52 -16.6,8.31 -7.32,3.7 -14.6,7.46 -21.93,11.13 q -60.7,30.39 -121.45,60.75 c -7.77,3.89 -15.48,7.9 -23.25,11.79 -40,20 -80.13,40 -120.12,60.12 -21.4,10.79 -42.86,21.47 -64.23,32.3 a 8.21,8.21 0 0 1 -5.89,0.64 c -8.18,-1.77 -16.25,-3.92 -24.3,-6.17 -1.2,-0.33 -2.37,-0.79 -3.64,-1.22 0.34,-0.88 1.15,-1 1.76,-1.31 q 18.81,-9.43 37.64,-18.83 32.94,-16.49 65.87,-33 c 7.44,-3.73 14.82,-7.56 22.25,-11.28 q 52.74,-26.4 105.49,-52.76 c 6.55,-3.28 13.12,-6.51 19.64,-9.83 45.72,-23.25 91.74,-45.89 137.54,-69 q 25,-12.6 50,-25.13 a 6.3,6.3 0 0 1 2.18,-0.82 z"
         transform="translate(-714.7,-1630.67)"
         id="path1258" />
      <path
         style="fill:#b27979;fill-opacity:1"
         inkscape:connector-curvature="0"
         class="cls-2"
         d="m 1242.55,1636.43 a 4.27,4.27 0 0 1 -2,1.39 q -10.07,5.06 -20.15,10.1 c -4.34,2.19 -8.63,4.48 -13,6.63 -2.4,1.19 -4.79,2.41 -7.24,3.52 -3.12,1.42 -6.11,3.12 -9.17,4.65 q -29.46,14.77 -58.92,29.53 -29.89,15 -59.82,29.92 c -4.22,2.12 -8.34,4.47 -12.64,6.43 -4.09,1.88 -8.06,4 -12.07,6 -5.25,2.64 -10.47,5.35 -15.72,8 q -51.25,25.64 -102.5,51.27 c -4.23,2.12 -8.35,4.47 -12.66,6.42 -3.92,1.79 -7.76,3.76 -11.57,5.74 -6.21,3.25 -12.51,6.33 -18.77,9.49 -8.27,4.19 -16.57,8.31 -24.86,12.44 a 5.53,5.53 0 0 1 -2.07,0.81 26.64,26.64 0 0 1 2.32,-5 c 1.15,-2.21 2.44,-4.36 3.61,-6.57 3,-5.64 6.3,-11.08 9.63,-16.52 0.78,-1.28 1.61,-2.53 2.42,-3.79 a 6,6 0 0 1 2.49,-2.21 c 3.92,-1.93 7.85,-3.85 11.72,-5.86 3.87,-2.01 7.79,-3.92 11.66,-5.93 4.49,-2.34 9,-4.67 13.6,-6.77 2.83,-1.28 5.54,-2.84 8.32,-4.25 3.23,-1.63 6.47,-3.24 9.71,-4.86 l 72.92,-36.47 c 3.34,-1.67 6.59,-3.51 9.95,-5.11 5.08,-2.42 10.12,-4.93 15.15,-7.45 4,-2 8.08,-3.88 12,-6 5.15,-2.84 10.47,-5.32 15.72,-8 q 43.47,-21.81 87,-43.55 c 3.35,-1.68 6.67,-3.39 10,-5.11 6,-3.07 12,-5.89 18,-8.88 4.73,-2.36 9.47,-4.7 14.15,-7.14 3.66,-1.9 7.41,-3.63 11,-5.6 0.93,-0.51 1.89,-1 2.85,-1.39 a 5.12,5.12 0 0 1 2.94,-0.43 c 2.52,0.43 5.08,0.45 7.62,0.72 2.85,0.29 5.69,0.65 8.53,1 2.41,0.29 4.83,0.54 7.23,0.89 4.14,0.56 8.24,1.24 12.62,1.94 z"
         transform="translate(-714.7,-1630.67)"
         id="path1260" />
      <path
         style="fill:#b27979;fill-opacity:1"
         inkscape:connector-curvature="0"
         class="cls-2"
         d="m 1499.27,2155.91 c -0.2,2 -1.41,3.6 -2.31,5.28 -1.94,3.64 -4,7.19 -6.08,10.78 -2.43,4.3 -5.05,8.48 -7.72,12.64 a 8.4,8.4 0 0 0 -0.82,1.25 c -1.09,2.61 -3.25,3.92 -5.69,5.1 -7.38,3.57 -14.71,7.26 -22,11 -45.66,23.2 -91.6,45.87 -137.37,68.87 -7.69,3.87 -15.34,7.83 -23,11.69 q -60.32,30.18 -120.65,60.34 c -4.12,2.06 -8.19,4.21 -12.28,6.31 a 2.78,2.78 0 0 1 -1.43,0.4 38.92,38.92 0 0 1 -5.8,-0.28 46.06,46.06 0 0 0 -5.4,-0.4 c -5.1,-0.39 -10.16,-1.07 -15.24,-1.63 -3.4,-0.37 -6.77,-1 -10.16,-1.47 a 1.67,1.67 0 0 1 -1.31,-0.71 c 1.48,-1.39 3.47,-1.84 5.17,-2.79 2.82,-1.59 5.76,-3 8.65,-4.4 q 52.52,-26.28 105,-52.55 c 3.84,-1.92 7.68,-3.85 11.48,-5.86 q 7.13,-3.78 14.43,-7.22 c 4.23,-2 8.35,-4.23 12.55,-6.31 6.55,-3.25 13.09,-6.55 19.64,-9.82 l 61.49,-30.75 q 12.66,-6.33 25.3,-12.66 c 8.26,-4.16 16.48,-8.38 24.74,-12.53 q 17,-8.55 34,-17 l 52.59,-26.29 a 6.08,6.08 0 0 1 2.23,-0.93 z"
         transform="translate(-714.7,-1630.67)"
         id="path1262" />
      <path
         style="fill:#b27979;fill-opacity:1"
         inkscape:connector-curvature="0"
         class="cls-2"
         d="m 984.18,2078.09 c 0.19,0.38 0.86,0.53 0.68,1 -0.68,1.92 0,3.87 0.21,5.69 a 18,18 0 0 0 1.46,6 c 1.05,2 2.15,4.07 3.17,6.13 a 3.85,3.85 0 0 1 0.49,2.15 c -8.78,4.39 -17.57,8.75 -26.33,13.2 -2.94,1.49 -5.86,3.07 -8.83,4.49 -4.29,2.05 -8.56,4.14 -12.79,6.32 -24.77,12.72 -49.8,25 -74.67,37.49 -2.53,1.28 -2.35,1.39 -3.68,-1.28 -2.54,-5.1 -5.1,-10.19 -7.64,-15.29 -0.72,-1.45 -0.71,-1.47 0.72,-2.19 q 16.8,-8.41 33.6,-16.81 c 4.84,-2.44 9.57,-5.08 14.48,-7.36 4.07,-1.89 8,-4.05 12,-6 4,-1.95 8.24,-4.2 12.38,-6.25 4.43,-2.19 8.94,-4.23 13.32,-6.52 13,-6.8 26.17,-13.16 39.25,-19.75 0.75,-0.29 1.31,-0.96 2.18,-1.02 z"
         transform="translate(-714.7,-1630.67)"
         id="path1264" />
      <path
         style="fill:#b27979;fill-opacity:1"
         inkscape:connector-curvature="0"
         class="cls-2"
         d="m 1102.25,1639.72 c -51.83,26.17 -103.46,52.44 -155.37,78.17 a 0.82,0.82 0 0 1 0.34,-1.15 c 4.25,-3.47 8.5,-7 12.81,-10.35 8.41,-6.61 17.2,-12.67 26.16,-18.49 5.13,-3.33 10.34,-6.56 15.72,-9.5 10,-5.42 20.21,-10.25 30.33,-15.35 a 188.26,188.26 0 0 1 18.63,-7.92 c 5,-1.89 10.05,-3.81 15.14,-5.52 4.91,-1.66 9.89,-3.13 14.86,-4.58 3.89,-1.14 7.82,-2.15 11.75,-3.17 2.77,-0.72 5.56,-1.39 8.35,-2 a 6.77,6.77 0 0 1 1.28,-0.14 z"
         transform="translate(-714.7,-1630.67)"
         id="path1266" />
      <path
         style="fill:#b27979;fill-opacity:1"
         inkscape:connector-curvature="0"
         class="cls-2"
         d="m 1405.28,2271 c -0.68,1.27 -2,1.9 -3,2.73 q -11.52,9 -23.72,17.06 c -6.47,4.27 -13.1,8.28 -19.81,12.16 -8.4,4.87 -17.09,9.19 -25.83,13.4 -5.28,2.55 -10.72,4.78 -16.14,7.06 -9.63,4.06 -19.51,7.44 -29.44,10.64 -5.16,1.67 -10.43,3 -15.65,4.5 a 1.39,1.39 0 0 1 -1.17,-0.07 4,4 0 0 1 1.87,-1.2 l 67.06,-33.55 c 6,-3 12.13,-6 18.14,-9.09 15,-7.76 30.19,-15.19 45.28,-22.79 a 4.48,4.48 0 0 1 2.44,-0.86 z"
         transform="translate(-714.7,-1630.67)"
         id="path1268" />
      <path
         style="fill:#b27979;fill-opacity:1"
         inkscape:connector-curvature="0"
         class="cls-2"
         d="m 1269.65,2338.87 a 0.32,0.32 0 0 1 -0.16,0 c 0,0 0,-0.12 0,-0.12 0,0 0.18,-0.03 0.16,0.12 z"
         transform="translate(-714.7,-1630.67)"
         id="path1270" />
      <path
         style="fill:#b27979;fill-opacity:1"
         inkscape:connector-curvature="0"
         class="cls-2"
         d="m 1499.27,2155.92 c 0,-0.06 0.07,-0.16 0.09,-0.16 0.02,0 0.09,0.09 -0.09,0.15 z"
         transform="translate(-714.7,-1630.67)"
         id="path1272" />
      <path
         style="fill:#b27979;fill-opacity:1"
         inkscape:connector-curvature="0"
         class="cls-2"
         d="m 889.05,1780.3 c 0,0.06 -0.06,0.16 -0.08,0.16 -0.02,0 -0.09,-0.09 0.09,-0.14 z"
         transform="translate(-714.7,-1630.67)"
         id="path1274" />
      <path
         style="fill:#b27979;fill-opacity:1"
         inkscape:connector-curvature="0"
         class="cls-2"
         d="m 1405.27,2271 0.17,-0.16 c 0,0 0,0.09 0,0.1 l -0.13,0.07 z"
         transform="translate(-714.7,-1630.67)"
         id="path1276" />
    </g>
  </g>
  <g
     inkscape:groupmode="layer"
     id="layer5"
     inkscape:label="lighthouse"
     style="display:inline">
    <a
       id="a4573">
      <g
         style="display:inline;opacity:1"
         data-name="Lighthouse Blue"
         id="Lighthouse_Blue"
         transform="matrix(0.17316986,0,0,0.17316986,5.1404684,23.492894)">
        <path
           id="path1279"
           transform="translate(-714.7,-1630.67)"
           d="m 1182.89,1683.29 c 1,1.57 2.66,2.26 4.07,3.27 1.41,1.01 1.84,2.66 1,3.67 -1.66,1.88 -1.24,3.93 -1.32,6 0,1.24 0.09,2.49 0,3.71 -0.22,1.86 0.21,3.24 2.08,4 a 2.42,2.42 0 0 1 1.31,1.24 c 1.2,3.81 4.74,4.76 7.69,6.33 13.25,7.06 26.55,14 39.82,21 1,0.51 2.26,0.69 2.2,2.28 -0.06,1.59 -1.25,1.69 -2.16,2 -2.59,0.85 -3.26,2.47 -3.22,5.17 0.16,12.1 0.07,24.22 0.07,36.33 0,2.45 1.05,3.2 3.41,2.55 0.5,-0.13 1,-0.41 0.64,-0.82 -0.81,-1 -1.14,-1.65 0.26,-2.42 1.8,-1 3.33,-2.91 5.71,-1.74 1.49,0.73 2.85,1.7 4.31,2.58 -2.43,2.59 -2.31,3.18 0.82,4.46 3.76,1.53 7.56,3 11.27,4.61 1.45,0.64 2.2,0.49 3.16,-0.85 a 3.67,3.67 0 0 1 6.32,0.19 c 0.18,0.29 0.48,0.66 0.42,0.92 -1.76,7.3 -0.32,14.72 -0.77,22.06 -0.07,1.06 0,2.13 0,3.19 A 58.16,58.16 0 0 0 1272,1829 c 0.87,3.24 0,4.91 -3,6.54 -1.9,1 -4.89,1.18 -4.45,4.6 0.09,0.71 -0.67,0.64 -1.16,0.79 -4.37,1.4 -5,2.37 -5.21,7 0,0.83 0.67,2.11 -0.78,2.42 a 2.47,2.47 0 0 1 -3.06,-1.35 c -1,-1.79 -2.68,-2.16 -4.59,-1.48 -1.91,0.68 -3.19,1.77 -3.17,4 0,8 0.1,16.09 0,24.13 0,2.53 1.91,2.8 3.32,3.5 2.07,1 2.35,1.89 0.57,3.47 -2.42,2.16 -3.06,4.88 -2.75,8.13 1.64,17.13 3.13,34.27 4.67,51.4 1.29,14.33 2.52,28.65 3.88,43 1.65,17.48 3.43,34.94 5.13,52.41 1.31,13.53 2.51,27.06 3.89,40.58 1.21,11.84 2.56,23.67 4,35.49 0.21,1.8 -0.85,2.36 -1.92,3.07 a 219.11,219.11 0 0 1 -21.35,12.26 c -29,14.92 -59.15,26.78 -91,34.08 a 212.64,212.64 0 0 1 -58.85,5.58 118.75,118.75 0 0 1 -17.31,-2.2 3.77,3.77 0 0 1 -2.4,-1 9,9 0 0 0 -5.5,-2.91 c -0.87,-0.16 -1.86,-0.3 -1.91,-1.46 -0.07,-1.37 1.12,-1.46 2,-1.63 2.89,-0.56 5.82,-0.16 8.73,-0.27 1.32,-0.05 2.65,0 4,-0.18 a 2.35,2.35 0 0 0 2.26,-2.42 q 1.75,-20.18 3.7,-40.33 c 1.5,-15.54 3.1,-31.07 4.6,-46.61 1.33,-13.79 2.55,-27.59 3.88,-41.37 1.31,-13.61 2.74,-27.21 4.06,-40.82 1.16,-11.94 2.21,-23.9 3.36,-35.84 1.32,-13.61 2.71,-27.21 4.06,-40.81 0.74,-7.47 1.45,-14.93 2.19,-22.39 0.23,-2.28 -1.62,-3.42 -2.69,-4.95 -2,-2.84 -2.16,-3 0.92,-4.59 2.44,-1.25 3,-2.92 3,-5.49 -0.16,-7.07 -0.11,-14.14 0,-21.21 0,-2.18 -0.47,-3.84 -2.68,-4.61 a 3.63,3.63 0 0 0 -4.88,1.93 c -0.66,1.29 -1.77,1 -2.77,0.9 -1.23,-0.13 -0.79,-1.21 -0.77,-1.9 0.11,-4 -0.87,-7.06 -5.48,-7.57 -0.46,0 -1,-0.2 -0.89,-0.74 0.46,-3.44 -2.56,-3.56 -4.46,-4.6 -3.11,-1.72 -4.06,-4.21 -2.48,-7.47 a 6.27,6.27 0 0 0 0.52,-1.73 c 1.35,-7.83 1,-15.72 1,-23.61 0,-4.06 -0.15,-8.14 0.09,-12.19 0.08,-1.31 -1.52,-2.18 -0.48,-3.65 1.66,-2.31 4.63,-2.57 6.36,-0.15 1,1.36 1.73,1.47 3.16,0.84 3.71,-1.63 7.51,-3.08 11.27,-4.62 3.1,-1.27 3.23,-1.86 0.82,-4.46 1.46,-0.88 2.83,-1.82 4.31,-2.57 1.48,-0.75 6.24,1.21 6.7,2.61 0.06,0.16 0.12,0.4 0,0.5 -0.57,0.79 -2,1.78 0.41,1.86 1.39,0.05 2.94,0.56 2.92,-2 q -0.18,-19.49 0,-39 c 0,-2.24 -1.37,-2.53 -2.82,-3.17 -0.75,-0.33 -1.83,-0.4 -2,-1.53 -0.15,-1.34 1,-1.51 1.84,-1.94 q 22.3,-11.94 44.65,-23.81 c 1.32,-0.69 2.38,-1.38 2.7,-3 a 2.84,2.84 0 0 1 1,-1.81 c 2.9,-1.57 2.39,-4.27 2.22,-6.72 -0.17,-2.45 0.9,-5 -1.08,-7.36 -1,-1.18 -0.86,-2.77 0.74,-3.87 1.6,-1.1 3.39,-1.86 4.63,-3.41 z m -1,55.33 -0.57,0.23 c 0,12.06 0,24.13 0,36.19 0,1.58 0.83,1.61 2,1.67 5.19,0.26 10.38,0.69 15.57,0.85 4.87,0.15 9.75,0 14.82,0 z m -36.08,39.57 c 1.3,0 1.82,0 2.34,0 9.43,-0.49 18.86,-1 28.29,-1.46 1.77,-0.07 1.7,-1 1.7,-2.23 q 0,-13 0,-26 v -9.69 l -0.53,-0.22 z m 68.91,-1.67 0.54,-0.23 v -32.17 c 0,-3.68 0,-3.64 -3.67,-4 -6.13,-0.65 -12.24,-1.38 -18.37,-2 -3.54,-0.39 -7.08,-0.71 -11.33,-1.14 z m -37.1,-39.67 c -1.82,0.22 -3.09,0.39 -4.36,0.53 -8.58,0.94 -17.15,1.91 -25.74,2.79 -2.07,0.21 -2.92,0.86 -2.88,3.22 0.17,10.24 0.07,20.48 0.07,30.72 v 2.22 l 0.56,0.17 z m -49.49,11.15 -0.3,0.1 v 35.41 c 3.93,-1.29 7.68,-2.55 11.45,-3.75 1.37,-0.44 0.85,-1.3 0.55,-2.09 -1.21,-3.12 -2.45,-6.24 -3.68,-9.36 q -4,-10.16 -8.02,-20.31 z m 12.87,28.93 c 0,-11.26 0,-22.65 0,-34 0,-1.28 -0.22,-1.8 -1.62,-1.21 -3,1.27 -6,2.49 -9.11,3.6 -1.2,0.44 -1.44,0.93 -1,2.13 4,9.84 7.9,19.76 11.73,29.47 z m 90.6,-29.26 -0.32,-0.1 q -5.38,15.18 -10.79,30.36 c -0.32,0.89 -0.35,1.48 0.65,1.88 3.43,1.35 6.84,2.74 10.46,4.19 z m -12.53,-6.49 v 35.89 c 3.93,-10.16 7.56,-20.42 11.22,-30.67 a 1,1 0 0 0 -0.65,-1.42 c -3.46,-1.27 -6.93,-2.5 -10.57,-3.81 z m -106.2,56.17 c 0,-3.82 -0.06,-7.33 0,-10.84 0.06,-2.07 -0.82,-2.24 -2.4,-1.5 l -7.92,3.66 a 25.16,25.16 0 0 0 -5.75,3 z m 150.7,-5.85 c -5.34,-2.46 -10,-4.61 -14.59,-6.69 -1,-0.44 -1.92,-0.39 -1.91,1.16 0,3.69 0,7.38 0,11.38 z m -167.1,16.45 12.47,5.14 c 2.13,0.88 3.8,-0.11 3.91,-2.45 0.11,-2.34 0,-4.58 0.05,-6.86 0,-1.5 -0.64,-2 -1.9,-1.53 -4.64,1.75 -9.25,3.61 -14.53,5.69 z m 167,0 c -5.21,-2.06 -9.68,-3.86 -14.17,-5.6 -1.43,-0.56 -2.36,-0.34 -2.27,1.56 0.1,2.2 0,4.4 0,6.6 0.06,2 1.61,3.45 3.07,2.88 4.3,-1.66 8.5,-3.39 13.4,-5.39 z m -167.07,-8.36 c 0,1.33 0.06,2.65 0,4 -0.06,1.35 0.29,1.69 1.64,1.18 3.88,-1.46 7.79,-2.81 11.7,-4.21 0.57,-0.2 1.36,-0.26 1.39,-1 0,-1 -0.88,-1 -1.51,-1.16 -2.69,-0.88 -5.38,-1.73 -8.06,-2.59 -5.13,-1.68 -5.13,-1.68 -5.13,3.78 z m 167,-5.37 c -4.64,1.47 -9.08,2.86 -13.52,4.28 -0.48,0.16 -1.07,0.3 -1.09,1 -0.02,0.7 0.45,0.74 0.85,0.88 4.54,1.62 9.09,3.22 13.76,4.86 z m 0.13,21.18 a 11.4,11.4 0 0 1 0,-1.85 c 0.38,-2.35 -0.71,-2.36 -2.5,-1.78 -3.42,1.11 -6.89,2.09 -10.34,3.12 -0.67,0.2 -1.44,0.31 -1.46,1.25 -0.02,0.94 0.7,1.1 1.37,1.34 3.07,1.06 6.13,2.16 9.21,3.19 a 2.66,2.66 0 0 0 3.68,-2.37 28.05,28.05 0 0 0 0.03,-2.9 z m -167.08,-4.25 c 0,2.58 -0.15,4.87 0,7.13 0.13,1.55 1.13,3.08 2.86,2.6 3.55,-1 7,-2.35 10.48,-3.57 a 1.15,1.15 0 0 0 0.9,-1.16 1.12,1.12 0 0 0 -1,-1.1 c -4.27,-1.29 -8.63,-2.55 -13.25,-3.9 z m 137.91,-3.15 h 0.12 c 0,2.47 -0.06,4.94 0,7.4 0,0.75 0.34,1.63 1.44,1.54 0.56,0 1.66,0.15 1.46,-0.59 -0.64,-2.3 1.35,-3.94 1.23,-6.1 -0.15,-2.55 -0.07,-5.12 0,-7.67 0,-1.49 0.17,-2.64 -2.06,-2.68 -2.4,0 -2.24,1.25 -2.2,2.81 0.03,1.76 0,3.53 0,5.29 z m -108.77,-0.1 v 0 c 0,-2.12 -0.07,-4.24 0,-6.35 0.08,-1.93 -1.23,-1.49 -2.32,-1.57 -1.09,-0.08 -2,0.07 -2,1.64 a 91.58,91.58 0 0 1 0,9.52 c -0.11,1.5 1.84,1.88 1.3,3.47 -0.27,0.82 -0.84,2.19 1,2.35 1.68,0.15 1.92,-1 2,-2.18 0.08,-2.29 0.01,-4.59 0.01,-6.88 z m 113,-9.74 c 0,-4.41 0,-8.8 0,-13.19 0,-1.76 -1.17,-1.39 -2.17,-1.42 -1,-0.03 -2.15,-0.22 -2.1,1.49 0.08,2.91 0,5.82 0,8.73 0.03,3.8 0.03,3.8 4.27,4.39 z M 1121.36,1791 c 0,1.67 -0.08,3.35 0,5 0.06,0.75 -0.72,2.31 0.87,2.09 1.23,-0.18 3.32,0.28 3.33,-2.08 0,-3.7 0,-7.4 0,-11.1 0,-0.83 -0.24,-1.28 -1.18,-1.34 -2,-0.13 -3.52,-0.09 -3.1,2.65 a 31.47,31.47 0 0 1 0.08,4.78 z"
           class="cls-3"
           inkscape:connector-curvature="0"
           style="fill:#162933" />
        <path
           id="path1281"
           transform="translate(-714.7,-1630.67)"
           d="m 844.08,2215.16 a 168.24,168.24 0 0 1 25.5,-28.15 c 22.44,-19.48 48.62,-29.86 78.13,-32.25 21.22,-1.72 42.18,0.38 63,4.07 23.73,4.19 47,10.43 70.58,15.35 10.38,2.17 20.8,4.18 31.38,4.87 8.33,0.55 16.57,-0.88 24.76,-2.23 30.55,-5 58.67,-16.92 86.11,-30.7 24.59,-12.34 48.44,-26.11 73.11,-38.3 22.33,-11 45.21,-20.65 69.56,-26.42 30.9,-7.33 61.75,-7.39 92.64,0.83 -1.54,0.19 -3.09,0.36 -4.63,0.57 -1.54,0.21 -3.15,0.46 -4.71,0.72 -24.28,4 -46.41,13.7 -67.76,25.44 -27.12,14.92 -52.43,32.66 -78,50 -28.67,19.38 -57.55,38.41 -88.26,54.49 -18.45,9.67 -37.33,18.4 -57,25.16 -9.94,3.41 -20.34,5.18 -30.7,6.87 -15.9,2.6 -31.89,3.91 -48,2.88 -20.35,-1.3 -39.56,-6.74 -58,-15.18 -14.51,-6.64 -28.47,-14.42 -43.18,-20.67 -24.14,-10.26 -49.21,-13.39 -75.19,-10.59 -19.3,2.08 -38,6.73 -56.49,12.5 -0.76,0.17 -1.43,0.34 -2.85,0.74 z"
           class="cls-3"
           inkscape:connector-curvature="0"
           style="fill:#162933" />
        <path
           id="path1283"
           transform="translate(-714.7,-1630.67)"
           d="m 1381.37,2121.52 c -22.23,23.37 -39.81,50.45 -60.16,75.32 -13.78,16.85 -27.91,33.37 -45.06,47 a 147,147 0 0 1 -69.77,30.45 c -29.64,4.64 -59.17,3.66 -88.68,-1 -22.55,-3.55 -44.6,-8.95 -65.58,-18.18 -3.1,-1.36 -6.11,-2.94 -9.09,-4.6 2.8,0 5.35,1.05 8,1.7 a 193.61,193.61 0 0 0 73.39,3.7 c 38.95,-5.25 74.65,-19.76 108.92,-38.31 31.68,-17.14 61.12,-37.71 90.24,-58.79 14.51,-10.51 28.81,-21.33 44.09,-30.74 a 72.34,72.34 0 0 1 13.37,-6.91 c 0.09,0.11 0.21,0.24 0.33,0.36 z"
           class="cls-3"
           inkscape:connector-curvature="0"
           style="fill:#162933" />
        <path
           id="path1285"
           transform="translate(-714.7,-1630.67)"
           d="m 1381,2121.14 c 0.27,-0.17 0.54,-0.32 0.82,0 l -0.47,0.39 c -0.1,-0.13 -0.22,-0.26 -0.35,-0.39 z"
           class="cls-3"
           inkscape:connector-curvature="0"
           style="fill:#162933" />
      </g>
    </a>
  </g>
  <g
     inkscape:groupmode="layer"
     id="layer4"
     inkscape:label="text"
     style="display:inline">
    <g
       id="g1529"
       style="fill:#ffffff;fill-opacity:1"
       transform="matrix(0.65450028,0,0,0.65450028,-58.207154,181.3658)">
      <path
         style="fill:#ffffff;fill-opacity:1;stroke-width:0.26542929"
         d="m 305.22971,-129.71997 c 0.86647,-0.30221 1.71552,-0.99649 3.31785,-2.71277 2.3889,-2.55875 3.49605,-4.10928 5.21569,-7.3043 1.3209,-2.45411 1.44137,-2.56289 5.50442,-4.96984 2.74503,-1.62613 3.01561,-1.85777 3.26897,-2.79871 0.47145,-1.75082 0.36286,-1.72425 -3.34553,0.81939 -1.1174,0.76642 -2.27578,1.39351 -2.57418,1.39351 -0.48432,0 -0.52432,-0.1138 -0.37271,-1.06197 0.15706,-0.98308 3.68367,-10.81003 5.85196,-16.30726 0.51467,-1.30485 0.87591,-2.43232 0.80271,-2.50552 -0.10658,-0.10659 -2.82851,0.66741 -4.27477,1.2154 -0.16773,0.0637 -0.82476,-0.42341 -1.45985,-1.08226 -1.36296,-1.41387 -2.15725,-1.75816 -4.05608,-1.75816 -3.23954,0 -7.94507,3.71841 -10.0631,7.9521 -0.53383,1.06705 -0.97059,2.13455 -0.97059,2.37218 0,0.81215 -1.33467,4.63897 -1.7955,5.14818 -0.253,0.27965 -0.9701,0.80723 -1.59356,1.17262 -0.94934,0.55637 -1.20104,0.60825 -1.54899,0.31949 -0.64603,-0.53615 -0.25143,-2.36 1.20126,-5.5511 2.3283,-5.11487 4.0022,-10.04627 4.0022,-11.79064 0,-1.24403 -1.39439,-2.80798 -2.50355,-2.80798 -0.89215,0 -2.30096,0.5863 -2.77118,1.1533 -0.20032,0.24171 -0.57479,0.43927 -0.83211,0.43927 -0.50662,0 -1.4579,1.21233 -1.4579,1.85801 0,0.2458 -0.41576,0.4996 -1.08769,0.66356 -0.59825,0.14609 -1.64991,0.72672 -2.33703,1.29049 -0.68716,0.56376 -1.29777,0.97664 -1.35693,0.91748 -0.17524,-0.17524 1.3951,-4.66778 2.02136,-5.78199 0.63389,-1.1279 0.52473,-1.98718 -0.22447,-1.76694 -0.25613,0.0753 -1.45724,0.27745 -2.66898,0.44893 l -2.20318,0.31193 -1.04834,2.08505 c -0.57659,1.14678 -1.04834,2.24795 -1.04834,2.44705 0,0.19907 -0.59888,1.56283 -1.33081,3.03054 -1.19734,2.4009 -1.60677,3.65506 -2.31732,7.09843 -0.30942,1.49975 -1.151,1.94179 -2.73985,1.43922 -1.51555,-0.47938 -1.61603,-1.13638 -0.52612,-3.44026 0.44483,-0.94033 0.8089,-1.95989 0.80902,-2.26569 1.2e-4,-0.30597 0.24891,-1.26136 0.55289,-2.12345 1.0563,-2.99563 1.35268,-4.23073 1.39525,-5.81428 0.037,-1.38043 -0.0634,-1.74233 -0.75349,-2.71688 -0.96328,-1.36005 -1.48151,-1.56269 -2.84532,-1.1126 -0.88435,0.29186 -1.08004,0.28622 -1.27954,-0.0364 -0.38288,-0.61922 -2.33507,-0.41823 -3.97078,0.4088 -2.49148,1.25977 -2.98443,1.70149 -2.85824,2.56117 0.13794,0.93955 -0.77227,1.89159 -1.84585,1.93075 -0.55126,0.0188 -0.73717,0.16081 -0.73717,0.55774 0,0.35391 0.17682,0.53084 0.53086,0.53084 0.29186,0 0.70998,0.11569 0.92896,0.25739 0.21882,0.14139 0.6765,0.22133 1.01667,0.17744 0.51317,-0.0664 0.60362,0.0251 0.53089,0.53903 -0.0684,0.48235 -0.33498,0.67869 -1.20789,0.88931 -0.61612,0.14859 -1.27305,0.45561 -1.45983,0.68214 -0.18686,0.22666 -0.66074,0.61045 -1.05318,0.85316 -0.68477,0.42347 -0.72074,0.41864 -0.89165,-0.11977 -0.15738,-0.4956 -0.2671,-0.40986 -0.94063,0.7346 -0.41942,0.71261 -0.84344,1.89027 -0.94225,2.617 -0.14891,1.09474 -0.39971,1.55392 -1.46254,2.67772 -1.31904,1.39472 -2.98491,2.48718 -3.30477,2.16728 -0.0994,-0.0994 0.0251,-1.28858 0.27524,-2.64265 0.47251,-2.55175 0.68102,-3.39954 2.0417,-8.30138 0.44577,-1.60588 0.92642,-3.63569 1.06819,-4.51073 0.1417,-0.87504 0.48931,-2.11449 0.77234,-2.75437 1.00083,-2.26255 0.60883,-2.61784 -1.63422,-1.48122 -2.50777,1.2708 -2.4488,1.26974 -3.95385,0.0715 -1.3402,-1.06711 -1.38651,-1.08138 -3.07173,-0.9461 -2.45335,0.19687 -4.26155,1.17327 -6.61239,3.57031 -2.71126,2.76454 -4.65122,6.71133 -4.65122,9.46276 0,0.58756 -0.14296,1.75996 -0.31748,2.60536 -0.26397,1.27735 -0.52771,1.74416 -1.56164,2.76253 -1.09308,1.07661 -1.31236,1.18891 -1.80597,0.92476 -0.45072,-0.24109 -0.56179,-0.54922 -0.56179,-1.55788 0,-1.20608 0.17494,-1.91362 1.71966,-6.9524 0.3804,-1.24089 0.81253,-3.12305 0.96029,-4.18261 0.14766,-1.05954 0.43928,-2.33495 0.6479,-2.83422 0.75839,-1.8151 -0.34544,-4.70277 -1.86641,-4.8825 -1.12058,-0.1323 -2.92583,0.65697 -3.27999,1.43423 -0.40448,0.88773 -0.40545,0.88453 0.35868,1.17506 0.67399,0.25612 0.88416,0.89406 0.39435,1.19678 -0.14798,0.0915 -0.51461,0.64743 -0.81457,1.23534 -0.49727,0.97473 -0.50862,1.10954 -0.12884,1.52913 0.55671,0.61514 0.52614,0.7639 -0.17744,0.86437 -0.50216,0.0718 -0.70563,0.46561 -1.31702,2.54944 -0.53796,1.83369 -0.65984,2.63085 -0.47616,3.11396 0.20095,0.52877 0.14828,0.70217 -0.28498,0.93394 -0.43655,0.23356 -0.50069,0.45035 -0.3582,1.20989 0.12916,0.68891 0.0546,1.0569 -0.29281,1.44053 -0.3846,0.42498 -0.40683,0.58699 -0.12666,0.92438 0.18873,0.22729 0.54888,0.34268 0.81059,0.25958 1.12458,-0.35692 0.76412,1.59778 -0.44015,2.38686 -0.6613,0.43332 -0.90013,1.80343 -0.37128,2.13025 0.14609,0.0903 0.26553,0.45141 0.26553,0.80262 0,0.74789 0.85564,1.30391 1.67629,1.08932 0.32267,-0.0844 0.75687,0.0313 1.02388,0.27306 0.28184,0.25518 0.70177,0.3593 1.07151,0.26585 0.72983,-0.18465 3.66653,-2.06399 4.1665,-2.66644 0.57624,-0.69431 0.94229,-0.50903 1.9847,1.00451 1.85757,2.69713 4.39779,2.34178 7.58031,-1.06031 0.88423,-0.94527 1.60424,-1.62472 1.59998,-1.50988 -0.0283,0.77337 -1.07116,3.90532 -1.36153,4.09032 -0.19593,0.12477 -1.25186,0.60113 -2.34676,1.05862 -2.88485,1.20543 -4.99351,2.80375 -6.08894,4.6153 -1.11327,1.84106 -1.35274,6.2804 -0.43457,8.056 0.77177,1.49241 3.17732,1.71818 5.90287,0.55401 1.28494,-0.54884 2.74409,-1.71628 2.74409,-2.19547 0,-0.14013 0.52782,-0.81889 1.17293,-1.50858 1.27437,-1.36241 3.62032,-5.87137 4.37175,-8.40263 0.43187,-1.45486 0.55369,-1.59628 2.52395,-2.92956 1.1386,-0.77051 2.42679,-1.70101 2.86268,-2.06777 0.8494,-0.71469 1.27842,-0.67004 1.27842,0.13292 0,1.25338 0.50267,0.59606 0.96138,-1.25729 l 0.50476,-2.03903 1.1792,-0.34143 c 1.52479,-0.44147 1.85755,-0.14358 1.25374,1.12271 -0.41956,0.8798 -0.41986,0.98482 -0.006,1.6179 0.37851,0.57772 0.38826,0.71368 0.0664,0.92698 -0.20753,0.13763 -0.69596,0.19187 -1.0856,0.12101 -0.6545,-0.11912 -0.72278,-0.0442 -0.89639,0.98358 -0.10346,0.61192 -0.37946,1.25262 -0.61355,1.42376 -0.38956,0.28497 -0.38759,0.39074 0.0219,1.25236 0.6427,1.34768 1.40899,1.74866 3.42519,1.79237 2.16958,0.047 2.95869,-0.31626 5.5384,-2.54991 1.09491,-0.94802 2.14478,-1.72415 2.33307,-1.72478 0.18842,-5.3e-4 0.83015,0.24767 1.42629,0.55189 0.61221,0.31225 1.59217,0.55298 2.25178,0.55298 h 1.16788 l -0.19438,1.3714 c -0.34747,2.4514 -0.28465,2.9542 0.38003,3.04862 0.32792,0.0467 1.49501,-0.11536 2.59351,-0.35968 2.3192,-0.51595 2.38667,-0.59728 2.91718,-3.51589 0.67129,-3.69317 1.20737,-5.95278 1.58025,-6.66076 0.20158,-0.383 0.98739,-1.29359 1.74591,-2.02351 0.75854,-0.72994 1.79604,-1.96859 2.30557,-2.75259 0.62574,-0.96278 1.24424,-1.56112 1.90572,-1.84362 0.57183,-0.24421 1.24246,-0.83466 1.61167,-1.41896 0.59145,-0.93595 0.65481,-0.96868 0.97913,-0.50564 0.29657,0.42341 0.2511,0.66615 -0.31395,1.67722 -0.3634,0.65016 -0.88344,1.82949 -1.15564,2.62066 -0.27213,0.79121 -0.80933,2.05897 -1.19359,2.81726 -0.38426,0.75833 -0.69863,1.60881 -0.69863,1.89003 0,0.2812 -0.17932,0.58004 -0.39815,0.66405 -0.2486,0.0956 -0.39814,0.50062 -0.39814,1.07978 0,0.5986 -0.19657,1.11014 -0.55499,1.44402 -0.7351,0.68483 -0.55542,1.42225 0.42483,1.74368 0.43654,0.14327 0.83324,0.28465 0.88158,0.31453 0.25708,0.15895 -0.60988,1.22167 -1.17048,1.43483 -0.85165,0.3238 -1.23553,1.38807 -1.01971,2.82716 0.19186,1.27905 1.08207,2.20804 2.11599,2.20804 0.33312,0 0.65176,0.13825 0.7081,0.30722 0.28183,0.84536 2.79528,-0.006 5.31736,-1.79895 0.69377,-0.49348 1.35133,-0.89723 1.46121,-0.89723 0.11004,0 0.4796,0.72155 0.82155,1.60342 0.69093,1.78187 1.34724,2.35479 2.94263,2.56878 1.34438,0.18026 3.28241,-0.72211 5.23494,-2.43764 0.75346,-0.66205 1.42639,-1.20368 1.49536,-1.20368 0.16866,0 -1.13208,3.22999 -1.47021,3.65073 -0.14704,0.18308 -1.39997,0.68684 -2.78413,1.11951 -4.60239,1.43864 -6.52783,3.08432 -7.61722,6.5105 -1.5394,4.84142 -0.31872,7.21395 3.56493,6.92886 0.8029,-0.059 1.98385,-0.28999 2.62434,-0.51345 z m -4.01169,-2.23489 c -0.64553,-0.73514 -0.76062,-1.45722 -0.47355,-2.97091 0.32579,-1.71792 1.71334,-3.39655 3.31946,-4.0158 0.59533,-0.22948 1.70108,-0.76513 2.45721,-1.19018 1.0356,-0.58216 1.45006,-0.69756 1.67985,-0.46774 0.34868,0.34865 0.37005,0.30034 -2.11346,4.7819 -2.19803,3.96649 -3.71897,5.17296 -4.86951,3.86273 z m -56.47625,-6.88897 c -0.79318,-0.27807 -1.06173,-0.98507 -1.06173,-2.79474 0,-1.63493 0.0871,-1.93633 0.86266,-2.98681 0.47445,-0.64257 1.16603,-1.29861 1.53684,-1.4578 0.3708,-0.15926 1.38607,-0.76274 2.25616,-1.34121 0.87004,-0.57846 1.73123,-1.05213 1.91372,-1.0526 0.47391,-0.001 0.4178,1.6162 -0.0809,2.32801 -0.22698,0.32393 -0.94255,1.80992 -1.5903,3.30224 -1.4556,3.35344 -2.52053,4.46451 -3.83662,4.00291 z m 62.80328,-10.21182 -0.70897,-0.61663 0.25613,-2.44318 c 0.45369,-4.32758 1.54921,-7.23968 3.69236,-9.81488 1.95018,-2.34337 3.7282,-3.04101 4.86168,-1.90752 0.5048,0.50479 0.54787,0.75792 0.39987,2.35043 -0.12854,1.38225 -0.43247,2.30717 -1.34814,4.10164 -0.65023,1.27431 -1.38112,2.93393 -1.62421,3.68809 -0.89519,2.7771 -2.42395,4.66098 -4.12713,5.08586 -0.5119,0.1276 -0.87754,0.0126 -1.40159,-0.44381 z m -37.83037,-3.89238 c -0.5306,-0.99138 -1.07665,-2.85356 -1.08042,-3.6843 -0.002,-0.47034 0.36968,-2.26199 0.82626,-3.98144 0.45655,-1.71945 0.81776,-3.53467 0.80268,-4.03382 -0.0593,-1.96282 4.19095,-5.97317 5.792,-5.46502 0.71528,0.22698 0.67985,0.48229 -0.21068,1.51925 -1.41842,1.65155 -1.64004,2.13938 -1.64004,3.6101 0,1.18844 -0.0859,1.44809 -0.5157,1.56051 -0.2856,0.0746 -0.58392,0.44858 -0.66854,0.83779 -0.17305,0.79639 0.45937,5.34949 0.90457,6.51109 0.39827,1.03919 0.17494,1.57766 -1.11079,2.6782 -1.25829,1.07706 -2.65453,1.2787 -3.09928,0.44764 z m -21.17066,-4.35535 c -0.36542,-0.68787 -0.44875,-1.46388 -0.41125,-3.83039 0.0436,-2.75302 0.11693,-3.13716 1.0132,-5.30861 1.22593,-2.97021 2.06884,-4.41287 3.07075,-5.25594 1.0647,-0.89585 1.941,-1.08605 2.70312,-0.58668 0.91688,0.60076 1.37597,3.52956 0.7935,5.06229 -0.22854,0.60161 -0.9216,2.52715 -1.53995,4.27898 -1.65743,4.69584 -1.98502,5.39475 -2.8007,5.97558 -0.4074,0.28999 -1.1074,0.52743 -1.55556,0.52743 -0.64838,0 -0.90849,-0.17619 -1.27311,-0.86266 z m 16.10495,-2.30681 c 0,-0.64093 0.14765,-0.70557 0.35813,-0.15676 0.0821,0.21444 0.0354,0.46025 -0.10438,0.54655 -0.13951,0.0862 -0.25394,-0.0891 -0.25394,-0.38964 z m -132.75407,23.22975 c 1.39933,-0.72362 4.02946,-4.03744 3.5695,-4.49739 -0.0906,-0.0906 0.0499,-0.40185 0.31225,-0.69168 0.42055,-0.46474 0.42798,-0.54571 0.0634,-0.68566 -0.57919,-0.22227 -1.52853,0.33883 -1.35194,0.79905 0.16146,0.42094 -0.9798,0.80268 -3.71825,1.24372 -1.11734,0.17994 -1.64073,0.17336 -1.70566,-0.0219 -0.13825,-0.41505 -0.58031,-0.34156 -0.58031,0.0965 0,0.20755 -0.42642,0.51832 -0.94758,0.6903 -1.17299,0.38714 -1.35206,0.80535 -0.74287,1.73506 1.03019,1.57226 3.42663,2.19778 5.10164,1.33162 z m 13.74214,-3.35425 c 1.14998,-0.55672 3.55019,-3.09578 3.55019,-3.7556 0,-0.20314 -0.12195,-0.49094 -0.27086,-0.63988 -0.18403,-0.18403 -0.0637,-0.38156 0.37579,-0.61682 0.3556,-0.19029 0.71603,-0.54028 0.80092,-0.77766 0.085,-0.23732 0.42627,-0.79736 0.75858,-1.24437 0.33234,-0.44702 0.80751,-1.46228 1.05599,-2.25616 0.24861,-0.79387 0.70064,-2.21976 1.00483,-3.16866 1.07145,-3.34247 1.32845,-4.96197 1.63596,-10.30857 0.23858,-4.14973 0.23764,-5.66986 -0.003,-6.57317 -0.17274,-0.64631 -0.31522,-1.80043 -0.31635,-2.56477 -0.003,-2.47984 -1.82081,-8.36842 -3.16475,-10.25581 -0.72775,-1.02201 -1.24174,-1.03179 -2.59793,-0.0492 -2.17823,1.5779 -3.00458,3.67381 -1.98963,5.04659 0.30191,0.40829 0.8974,1.50557 1.32338,2.43836 0.42595,0.93278 1.25769,2.71123 1.84833,3.95213 1.10809,2.32807 1.43106,3.64295 1.95576,7.96288 0.31318,2.57921 0.28434,2.94385 -0.82291,10.42638 -0.17712,1.19669 -0.6222,2.48329 -1.32801,3.83886 -0.58389,1.12139 -1.06163,2.19264 -1.06163,2.38056 0,0.18778 -0.11098,0.34165 -0.24641,0.34165 -0.42539,0 -1.11725,0.84902 -0.98103,1.20393 0.0837,0.2182 -0.33102,0.49006 -1.16271,0.76209 -0.71104,0.23261 -1.38984,0.42228 -1.5084,0.42152 -0.11851,-7.8e-4 -0.24797,-0.56019 -0.28811,-1.24327 -0.0398,-0.68311 -0.24891,-1.76168 -0.46451,-2.39683 -0.21568,-0.63518 -0.39206,-1.53966 -0.39206,-2.00996 0,-0.47031 -0.12728,-1.2724 -0.28309,-1.78237 -0.45348,-1.48483 -0.8356,-4.28811 -0.74146,-5.43956 0.10101,-1.23425 0.0978,-3.70625 -0.0188,-15.6153 -0.0658,-6.70264 -0.16302,-8.7438 -0.42033,-8.84258 -0.48273,-0.18528 -3.55932,0.41275 -4.42395,0.85986 -1.29067,0.66741 -1.51784,2.19054 -1.51693,10.17086 5e-4,4.43707 0.10408,7.20421 0.28247,7.53751 0.19907,0.37188 0.19844,0.80761 -0.002,1.48286 -0.15611,0.52592 -0.30189,3.28534 -0.32447,6.13208 -0.0354,4.49874 -0.12352,5.49986 -0.67364,7.65235 -0.46828,1.83252 -0.56189,2.60897 -0.36006,2.98608 0.43507,0.81293 0.97577,0.59866 1.72795,-0.68484 0.38497,-0.65694 0.8525,-1.19443 1.0389,-1.19443 0.18653,0 0.51602,0.62709 0.73246,1.3935 l 0.39356,1.3935 1.69751,-0.0461 1.69754,-0.0461 -1.3247,0.44436 c -0.76653,0.25707 -1.3592,0.62615 -1.4066,0.87585 -0.0496,0.26083 0.47411,0.8746 1.32469,1.55252 1.30632,1.04109 1.49088,1.10953 2.58828,0.95974 0.64994,-0.0888 1.68584,-0.40532 2.30202,-0.70362 z m -18.63223,-0.60152 c -0.0903,-0.23512 0.4193,-0.57069 1.53458,-1.01044 1.44777,-0.57084 1.66365,-0.74449 1.6244,-1.30682 -0.0251,-0.35666 -0.18246,-2.0221 -0.3505,-3.70095 -0.22509,-2.2497 -0.22884,-3.71553 -0.0157,-5.57402 0.54197,-4.69493 0.11913,-13.95124 -0.8013,-17.54155 -0.32564,-1.27015 -3.13512,-4.96263 -4.49649,-5.90968 -1.31043,-0.91156 -3.09434,-1.24582 -3.33275,-0.62446 -0.1138,0.29625 -0.39541,0.375 -1.00022,0.27964 -0.68919,-0.10878 -1.01047,0.0282 -1.77092,0.74998 -1.77554,1.68719 -2.41598,2.74566 -3.26429,5.39507 -0.79339,2.47786 -0.84675,2.88366 -0.80289,6.10487 0.0576,4.23913 0.40043,5.34867 2.14744,6.95382 0.69088,0.63477 1.43371,1.12019 1.65076,1.07865 0.46573,-0.0891 1.47015,-1.85105 1.71067,-3.00088 0.14514,-0.69427 -0.0188,-1.04022 -1.15731,-2.4605 -1.69921,-2.11721 -3.23623,-6.5714 -2.4379,-7.06479 0.12947,-0.08 0.31842,-0.58832 0.41996,-1.12964 0.10161,-0.54129 0.4137,-1.27537 0.69365,-1.63129 0.27996,-0.35592 0.50903,-0.77463 0.50903,-0.93046 0,-0.511 1.68409,-2.03392 2.24917,-2.03392 1.15699,0 2.16461,0.99348 3.33306,3.28619 0.57552,1.12932 0.71863,1.65352 0.51755,1.89583 -0.15299,0.18433 -0.24766,1.09427 -0.21036,2.02237 0.037,0.92812 -0.0219,5.44994 -0.13449,10.0485 -0.2138,8.84861 -0.0366,12.05235 0.80676,14.59862 0.43768,1.32121 0.5505,1.45288 1.18795,1.38658 0.38739,-0.0404 0.78011,0.0492 0.87269,0.19907 0.2464,0.39886 0.67436,0.33278 0.51604,-0.0796 z m 40.97334,-3.55151 c 1.03326,-0.4903 1.90442,-1.55856 3.39196,-4.15946 0.82351,-1.43984 1.20315,-1.87144 1.59258,-1.81043 2.66766,0.41792 3.03032,0.3903 4.09088,-0.31163 0.57976,-0.38365 1.10186,-0.69753 1.16027,-0.69753 0.0583,0 0.24734,0.34039 0.41952,0.75641 0.44607,1.07691 2.47959,2.98885 3.58197,3.36783 1.14867,0.39488 3.06358,0.0909 4.08477,-0.64857 1.13851,-0.82434 3.37831,-3.24624 4.13481,-4.47103 0.81287,-1.31598 1.09787,-1.40291 1.30541,-0.39814 0.22038,1.06768 1.46257,2.84469 2.35792,3.3736 1.07979,0.63784 3.14628,0.57755 4.61765,-0.13482 0.7719,-0.37365 1.89903,-1.38832 3.23368,-2.91117 1.38476,-1.57992 2.24234,-2.3452 2.646,-2.36115 0.5511,-0.0219 0.59725,-0.14798 0.59725,-1.63361 0,-0.88552 0.12884,-1.85087 0.28654,-2.14522 0.22603,-0.42244 0.19248,-0.60387 -0.15957,-0.86131 -0.27369,-0.20032 -0.49499,-0.83253 -0.57277,-1.63718 -0.29092,-3.00966 -0.83318,-2.29199 -0.86246,1.14132 l -0.0188,2.18688 -1.40883,1.66182 c -1.43225,1.68945 -2.75547,2.43702 -3.69703,2.08872 -0.25613,-0.0947 -0.92994,-0.79032 -1.49762,-1.54583 -1.73951,-2.3151 -1.93438,-5.28274 -0.57595,-8.77114 0.29907,-0.76798 0.54375,-1.57048 0.54375,-1.78331 0,-0.21287 0.47088,-1.07752 1.04637,-1.92153 1.2251,-1.79657 2.28616,-4.79296 2.67152,-7.54413 0.15047,-1.07431 0.4034,-2.35169 0.56204,-2.83862 0.40141,-1.2318 0.40554,-5.33516 0.006,-7.87384 -0.4009,-2.55995 -1.01947,-3.95065 -1.8071,-4.06289 -0.75102,-0.10691 -4.54971,1.83839 -5.4441,2.78808 -0.89758,0.95306 -1.52204,2.83362 -1.6579,4.99262 -0.059,0.93687 -0.29313,2.27529 -0.52069,2.97424 -0.67293,2.06815 -0.92389,5.50122 -0.51684,7.07037 0.45683,1.76114 0.44616,2.12427 -0.0564,1.93138 -0.27493,-0.10565 -0.49811,0.0787 -0.68922,0.56881 -0.28905,0.7417 -0.60596,7.87127 -0.5116,11.51053 l 0.0526,2.02649 -1.6821,2.08765 c -1.9512,2.42166 -2.65961,2.70804 -3.7609,1.52038 -0.89159,-0.96153 -2.82296,-4.74687 -2.82296,-5.53279 0,-0.64314 1.34262,-4.70891 2.28052,-6.90595 0.18684,-0.43795 0.40654,-0.97545 0.48786,-1.19443 0.0815,-0.21914 0.25049,-0.57731 0.37579,-0.79629 1.09289,-1.91021 2.44595,-7.59947 2.44843,-10.29518 0.001,-1.2098 0.0978,-2.46395 0.21507,-2.78701 0.60686,-1.67248 -0.95612,-8.39413 -2.04945,-8.81369 -0.98683,-0.3787 -5.54316,2.62503 -6.09351,4.01709 -1.00216,2.53489 -1.86589,7.7718 -2.0104,12.18995 -0.053,1.61567 -0.2298,3.18724 -0.39301,3.49234 -0.47292,0.88363 -0.58072,11.46345 -0.13638,13.38836 0.24736,1.07179 0.21789,1.34541 -0.21881,2.0354 -0.78438,1.23878 -3.21024,1.84123 -3.92862,0.97564 -0.18057,-0.21758 -0.2671,-0.72529 -0.19249,-1.12807 0.075,-0.40282 0.2787,-1.46946 0.45333,-2.37034 0.2323,-1.19919 0.2511,-2.77268 0.0699,-5.87378 -0.28559,-4.88955 -0.64693,-5.96833 -2.26885,-6.77453 -1.11744,-0.55545 -1.69111,-0.44338 -2.88874,0.56434 -0.55963,0.4709 -0.87705,0.59784 -0.94969,0.37979 -0.0599,-0.17994 -0.52887,-0.32745 -1.04185,-0.32745 -0.78976,0 -1.21261,0.27024 -2.75901,1.76319 -1.90776,1.84177 -2.33397,2.54972 -1.87093,3.10768 0.39717,0.47856 -0.56574,1.96571 -1.34419,2.07602 -0.40012,0.0567 -0.64321,0.29469 -0.6985,0.68418 -0.0467,0.3285 0.0126,0.60427 0.13261,0.6129 0.11975,0.009 0.6953,0.0543 1.27925,0.10121 0.58393,0.047 1.20961,-0.0333 1.39034,-0.17839 0.23105,-0.18559 0.37887,-0.13292 0.49781,0.17713 0.18308,0.47731 -0.54185,1.18867 -1.22615,1.20312 -0.21977,0.003 -0.67889,0.61706 -1.02013,1.3609 -0.60135,1.31074 -0.63051,2.08972 -0.14077,3.75707 0.0749,0.25549 0.0354,0.46451 -0.088,0.46451 -0.28497,0 -1.13847,-2.84501 -1.13847,-3.79551 0,-0.39425 -0.11944,-0.71682 -0.26553,-0.71682 -0.31375,0 -0.2787,-0.25204 -0.42458,3.05246 -0.13511,3.06034 0.44793,5.52993 1.62926,6.90114 l 0.68606,0.7963 -0.15236,-2.25613 -0.15236,-2.25616 0.95718,-0.61603 c 1.13687,-0.73171 1.83491,-0.6037 1.5431,0.28278 -0.35616,1.08226 -0.24923,1.62765 0.38182,1.94792 1.10065,0.55856 1.17662,0.79924 0.41065,1.30112 -0.51712,0.33883 -0.84143,0.39884 -1.1417,0.2113 -0.36263,-0.22666 -0.40671,-0.10471 -0.32579,0.89965 0.0514,0.63897 -0.0461,1.33005 -0.21694,1.53576 -0.42016,0.50625 0.2602,1.53671 1.39692,2.11575 0.99006,0.50436 2.96758,0.3683 4.37848,-0.30127 z m -1.62775,-4.86917 c -1.14722,-0.90241 -2.43701,-6.55432 -2.26299,-9.91638 0.0316,-0.61418 -0.0188,-1.24152 -0.11349,-1.39407 -0.19876,-0.32162 1.43025,-4.31566 2.20248,-5.40019 0.4763,-0.66887 1.74043,-1.26399 2.04273,-0.96168 0.068,0.068 -0.14169,0.85137 -0.46595,1.74077 l -0.58963,1.61712 0.58129,1.77074 c 0.51655,1.57354 0.5354,1.79641 0.16929,2.00134 -0.44297,0.24798 -0.58075,2.02875 -0.19123,2.47363 0.12132,0.13857 0.3629,0.75262 0.53674,1.3643 0.174,0.61166 0.79118,1.62163 1.37187,2.24439 0.58073,0.62277 1.05587,1.32614 1.05587,1.56302 0,0.57884 -1.52922,2.85805 -2.13518,3.18232 -0.7482,0.40044 -1.44435,0.31038 -2.20143,-0.28528 z m 11.66909,-15.3276 c -0.0721,-0.11631 -0.0219,-0.3852 0.11286,-0.59721 0.13418,-0.21193 0.24578,-0.71393 0.24799,-1.1154 0.002,-0.40147 0.12352,-0.72993 0.2696,-0.72993 0.1461,0 0.26553,0.59722 0.26553,1.32714 0,0.97859 -0.10028,1.32714 -0.3825,1.32714 -0.21036,0 -0.44137,-0.0953 -0.51332,-0.21161 z m 4.79237,-7.41934 c 0.054,-2.59125 0.21632,-5.3086 0.36078,-6.03852 0.82654,-4.17813 1.3167,-6.73797 1.3167,-6.8765 0,-0.41543 0.78164,-0.0906 0.93353,0.38779 0.20598,0.64935 0.61186,6.03743 0.49822,6.6159 -0.45746,2.32889 -2.0834,8.63157 -2.55208,9.89277 -0.14923,0.40144 -0.35767,0.72993 -0.46328,0.72993 -0.10566,0 -0.14797,-2.12013 -0.0938,-4.71137 z m 13.68732,-0.72994 c 0.0965,-3.17913 0.76066,-9.01987 1.28296,-11.28074 0.15173,-0.65693 0.35877,-1.60267 0.46002,-2.10164 0.10131,-0.49896 0.30316,-0.94491 0.4486,-0.99102 0.93385,-0.29595 1.60702,1.88798 1.19869,3.88896 -0.13418,0.65693 -0.35648,2.62774 -0.49426,4.37958 -0.21977,2.79403 -0.38721,3.5274 -1.36316,5.97216 -0.61195,1.53285 -1.22892,2.90645 -1.37106,3.05244 -0.16772,0.17243 -0.22447,-0.8509 -0.16176,-2.91974 z m 16.48958,21.54384 c 0.53802,-0.41033 1.64173,-1.69299 2.45265,-2.8503 0.81097,-1.15731 1.60333,-2.1042 1.76084,-2.1042 0.15738,0 0.90789,0.19594 1.66753,0.43539 1.28021,0.40353 1.44495,0.40353 2.25391,0 0.47999,-0.23952 0.97382,-0.43539 1.09737,-0.43539 0.12352,0 0.22477,0.89959 0.22477,1.99906 0,1.53423 0.0928,2.03464 0.39913,2.1522 0.21945,0.0844 1.32434,-0.13199 2.45522,-0.48047 l 2.05609,-0.63364 0.16113,-3.57565 c 0.20346,-4.51536 0.71165,-6.51455 2.24228,-8.8234 0.97131,-1.46521 2.50696,-4.44931 2.50696,-4.87159 0,-0.33074 -0.66618,0.0251 -1.55762,0.8293 -0.56555,0.51097 -1.1034,0.92903 -1.19519,0.92903 -0.34547,0 -0.13041,-1.55734 0.62292,-4.5113 0.42803,-1.67828 0.69058,-3.13909 0.58343,-3.24621 -0.10722,-0.10722 -1.20648,0.13135 -2.44298,0.52981 l -2.24816,0.72465 -0.97379,2.91975 c -1.38467,4.15157 -2.28817,8.11442 -2.48119,10.88259 -0.18747,2.68719 -0.44668,3.15336 -2.01577,3.62348 -0.77466,0.23199 -1.19108,0.22384 -1.81817,-0.0357 -1.05577,-0.4373 -1.23999,-1.23999 -0.71936,-3.13478 0.53653,-1.95269 0.97599,-6.03718 0.96859,-9.00244 -0.003,-1.71261 -0.1395,-2.62725 -0.5083,-3.43965 -0.77661,-1.71042 -2.16271,-2.16995 -3.4673,-1.14948 -0.70967,0.55508 -1.59258,0.70224 -1.59258,0.26553 0,-0.14608 -0.33061,-0.26553 -0.73468,-0.26553 -0.82924,0 -2.36013,0.93545 -3.85962,2.35846 -0.88645,0.84118 -0.991,1.06709 -0.84852,1.83331 0.1298,0.69832 0.0251,1.03831 -0.52621,1.69233 -0.89359,1.06198 -0.7433,1.41144 0.61572,1.43172 l 1.10564,0.0157 1.39376,-2.51593 c 1.45918,-2.63399 2.36745,-3.48645 3.71653,-3.4883 0.92081,-10e-4 0.92586,0.36867 0.0283,2.09803 -0.6701,1.29165 -0.69011,1.44776 -0.44953,3.51335 0.23074,1.98154 0.21193,2.17211 -0.2276,2.28704 -0.52345,0.137 -0.68619,1.49695 -0.21412,1.78877 0.14609,0.0903 0.26554,0.50516 0.26554,0.92209 0,0.41692 0.46281,1.63418 1.02846,2.70499 1.13816,2.15456 1.12643,2.48674 -0.14672,4.156 -1.50511,1.97335 -3.26572,1.85952 -4.29252,-0.27745 -0.94408,-1.96476 -1.15964,-3.54222 -0.96357,-7.05166 l 0.18214,-3.26205 -0.99338,0.67412 c -0.54637,0.37077 -1.15882,0.67411 -1.36106,0.67411 -0.20221,0 -0.48119,0.29846 -0.61995,0.66358 -0.13887,0.36495 -0.36664,0.66356 -0.50639,0.66356 -0.47956,0 -0.59216,1.0673 -0.26616,2.5237 0.31616,1.41288 0.56565,1.74189 0.90469,1.19331 0.10283,-0.16647 0.45283,-0.11475 0.94467,0.1395 0.83714,0.43291 0.99185,1.09345 0.48006,2.04972 -0.25738,0.48116 -0.19625,0.65305 0.4232,1.18577 0.88813,0.76398 0.73816,1.29125 -0.51643,1.81545 -0.99787,0.41692 -1.2055,0.99985 -0.49734,1.39617 0.48733,0.27274 0.2718,0.84441 -0.31836,0.84441 -0.60376,0 -0.44786,0.6585 0.3432,1.44955 0.678,0.67804 0.84944,0.71939 2.61257,0.63036 1.57454,-0.0797 2.04894,-0.21882 2.86517,-0.8414 z m 20.8903,-20.15695 c -0.0329,-0.3174 -0.3969,-0.25581 -0.51095,0.0862 -0.0583,0.17526 0.0373,0.27087 0.21224,0.21225 0.17525,-0.0584 0.30942,-0.1928 0.29846,-0.29845 z"
         id="path930"
         inkscape:connector-curvature="0"
         sodipodi:nodetypes="cccccccscssccscsccccsscssccsccccssccccscccccsccssccccccccccccsccccccscccscccccccccccccccccccscccccccccsccsccccsccccccccccscccsccccscscccccccscscccccsscscccsccccccccccccccsccccccccccccscccccccccccscccscsccccccccscccccccccccscscccccscccccccccccccccccsscccccscccccsccccccsccccccccccccccccccccccccccccssscccccccccccccscccccccccscccccccccsccsccccccccccccsccccccccccccccccccscccccccccccssscccccccccccccccccccscccccccsccccccsssccccscccsccccscccccccccsccsscccccscsccccccccccccsscccccccccccsccccccscscccccccscccccccc" />
      <path
         sodipodi:nodetypes="ccssssccccccscccccccccccccccccccccccccccccccccccccccccccccccccccccccccccccccccccccccccccccccc"
         inkscape:connector-curvature="0"
         id="path930-6"
         transform="scale(0.26458333)"
         d="m 484.02344,-292.46484 -0.10938,26.48242 c 0,0 -1.45535,21.05077 1.8125,30.80273 2.9859,8.91056 12.77174,13.77539 21.19922,13.77539 h 48.04492 c 8.32819,0 17.60836,-4.03681 21.64649,-12.47461 4.48569,-9.37299 2.14843,-31.09961 2.14843,-31.09961 v -27.48632 h -8.56835 l 0.082,26.58593 c 0,0 3.96097,27.84991 -5.56446,33.82618 -5.27656,3.31051 -19.62234,3.51851 -38.28515,3.54296 -10.74728,0.014 -26.09719,0.62466 -31.42969,-7.19531 -3.69963,-5.42542 -2.41406,-28.5664 -2.41406,-28.5664 l -0.79688,-28.19336 z m 113.64844,0 0.1875,71.06054 h 35.13671 34.62891 l 0.002,-2.94531 v -3.50977 l -30.45312,-0.50195 -30.45117,-0.50195 -0.0703,-30.65039 -0.71679,-32.95117 z m 62.96679,0 0.0586,7.34179 h 40.13867 v 63.71875 h 8.88281 v -63.71875 h 40.08398 l -0.17773,-7.34179 z m 108.13672,0 v 71.06054 h 8.55664 v -71.06054 z m 31.85938,0 v 71.19922 h 8.48242 v -65.01172 h 5.19922 l 43.14062,65.01172 h 5.52539 l 44.07227,-65.01172 h 4.90234 v 65.01172 h 8.88281 v -71.19922 h -18.85937 l -41.25391,60.02929 -41.03711,-60.02929 z m 174.73828,0 -42.1836,71.06054 h 9.14649 l 11.01562,-16.78125 h 57.82424 l 9.5781,16.78125 h 10.4883 l -42.31642,-71.06054 z m 41.89645,0 0.061,7.34179 h 40.1367 v 63.71875 h 8.8828 v -63.71875 h 40.0859 l -0.1796,-7.34179 z m 102.9023,0 v 71.06054 h 72.6189 v 0 -6.99732 h -63.8825 v -25.77949 h 62.4683 v -7.43214 h -62.4683 v -23.4139 h 63.8825 v -7.43769 z m -138.02922,6.24609 c 7.61559,12.41711 17.29,27.199 24.05082,40.11133 h -48.16606 c 6.40872,-11.89651 16.88455,-28.70886 24.11524,-40.11133 z"
         style="fill:#ffffff;fill-opacity:1;stroke-width:1.00081742" />
    </g>
  </g>
</svg>
